<svg xmlns="http://www.w3.org/2000/svg" width="111.042" height="103" viewBox="0 0 111.042 103">
  <g id="Iconat_per_web-04" data-name="Iconat per web-04" transform="translate(-348.33 -362.238)">
    <path id="Path_152" data-name="Path 152" d="M546.231,509.793a32.12,32.12,0,0,1-1.871,2.694,7.8,7.8,0,0,1-4.273-6.93c-.049-.939,0-1.88,0-2.819h0c0-1.014-.026-2.028,0-3.036a1.612,1.612,0,0,1,1.631-1.773,1.579,1.579,0,0,1,1.6,1.779c.02,1.77,0,3.54,0,5.313A4.807,4.807,0,0,0,546.231,509.793Z" transform="translate(-136.19 -96.383)" fill="#ed5f88"/>
    <path id="Path_153" data-name="Path 153" d="M418.951,398.388h0a32.185,32.185,0,0,0-3.41-12.9c-.075-.156-.156-.313-.24-.466a32.507,32.507,0,0,0-40.633-15.2,31.919,31.919,0,0,0-3.717,1.738,32.518,32.518,0,0,0-15.7,37.281h0a32.114,32.114,0,0,0,3.274,7.668,30.514,30.514,0,0,0,1.8,2.726,32.736,32.736,0,0,0,5.3,5.672,32.418,32.418,0,0,0,14.934,7.074q.779.148,1.567.252a32.552,32.552,0,0,0,4.409.29h.159a32.3,32.3,0,0,0,8.9-1.278l.2-.09a33.789,33.789,0,0,0,4.789-2.714,3.83,3.83,0,0,1,2.923-.7,31.62,31.62,0,0,0,3.476-2.457c-.53-.142-1.06-.29-1.588-.449a7.371,7.371,0,0,0-7.115,1.26,19.258,19.258,0,0,1-8.207,3.476c-.365.07-1.063-.084-1.159-.307-.475-1.263-.808-2.578-1.2-3.9.342-.1.51-.162.684-.194,9.154-1.7,14.966-8.662,14.951-17.961,0-3.925-.093-7.854-.145-11.985l4.163-1.535c.214,2.135.4,4.056.6,5.988a1.634,1.634,0,0,0,1.738,1.669,1.56,1.56,0,0,0,1.486-1.779,25.419,25.419,0,0,0-.156-2.7c-.142-1.234-.359-2.462-.562-3.807,1.344-.084,2.567-.139,3.783-.249.672-.061,1,.168,1.052.869.168,2.121.455,4.235.536,6.359.1,2.491.032,4.989.02,7.48a1.659,1.659,0,0,0,1.393,1.892,1.708,1.708,0,0,0,.379.026,32.261,32.261,0,0,0,1.367-8.905v-.466C418.994,399.5,418.98,398.941,418.951,398.388Zm-31,15.446a26.472,26.472,0,0,1,4.056-9.183c.663,4.3-.209,7.607-4.053,9.183Zm11.877-3.809c-.6,6.223-6.234,11.44-12.518,11.97,0-1.37-.046-2.738.041-4.1,0-.255.513-.579.849-.692,3.963-1.217,6.437-3.83,7.074-7.917a22.8,22.8,0,0,0,.113-5.942,4.645,4.645,0,0,1,2.486-4.9c.64-.388,1.231-.869,1.941-1.359a6.561,6.561,0,0,1,.211,1.141c-.032,3.934.185,7.891-.194,11.793Z" transform="translate(-4.058 -3.802)" fill="#ed5f88"/>
    <circle id="Ellipse_5" data-name="Ellipse 5" cx="29.398" cy="29.398" r="29.398" transform="translate(359.22 370.779)" fill="#ed5f88"/>
    <path id="Path_154" data-name="Path 154" d="M551.139,513.185a1.549,1.549,0,0,1-2.083,1.017,31.684,31.684,0,0,1-4.377-1.564l-.29-.151a7.8,7.8,0,0,1-4.273-6.93c-.049-.939,0-1.88,0-2.819h0c0-1.014-.026-2.028,0-3.036a1.612,1.612,0,0,1,1.631-1.773,1.579,1.579,0,0,1,1.6,1.779c.02,1.77,0,3.54,0,5.313a4.808,4.808,0,0,0,2.9,4.771,7.2,7.2,0,0,0,.707.29c1.023.359,2.057.678,3.068,1.06A1.572,1.572,0,0,1,551.139,513.185Z" transform="translate(-136.211 -96.383)" fill="#62c2e8"/>
    <path id="Path_155" data-name="Path 155" d="M475.817,427.663c-.42-.015-.84-.023-1.263-.023a35.5,35.5,0,0,0-35.314,35.673,35.948,35.948,0,0,0,1.816,11.327,35.386,35.386,0,1,0,34.76-46.977Zm-19.653,54.662a8.143,8.143,0,0,0,1.318-.478,9.479,9.479,0,0,1,8.274-.71,1.547,1.547,0,0,0,2.028-1.13,1.607,1.607,0,0,0-1.417-2.028c-1.2-.272-2.41-.466-3.6-.756a5.313,5.313,0,0,0-3.572.388c-1.544.689-3.149,1.246-4.745,1.808-.29.1-.829.084-.962-.093-.886-1.2-1.695-2.451-2.509-3.656,1.842-.626,3.534-1.066,5.11-1.738l.2-.09a33.792,33.792,0,0,0,4.789-2.714,3.829,3.829,0,0,1,2.923-.7,4.223,4.223,0,0,1,.437.093c3.068.814,6.153,1.567,9.241,2.318a1.605,1.605,0,1,0,.8-3.106c-.24-.081-.487-.139-.73-.2-2.092-.524-4.2-.988-6.281-1.55-.53-.142-1.06-.29-1.588-.449a7.371,7.371,0,0,0-7.115,1.26,19.258,19.258,0,0,1-8.207,3.476c-.365.07-1.063-.084-1.159-.307-.475-1.263-.808-2.578-1.2-3.9.342-.1.51-.162.684-.194,9.154-1.7,14.966-8.662,14.951-17.961,0-3.925-.093-7.854-.145-11.985l4.163-1.535c.214,2.135.4,4.056.6,5.988a1.634,1.634,0,0,0,1.738,1.669,1.56,1.56,0,0,0,1.486-1.779,25.427,25.427,0,0,0-.156-2.7c-.142-1.234-.359-2.462-.562-3.807,1.344-.084,2.567-.139,3.783-.249.672-.061,1,.168,1.052.869.168,2.121.455,4.235.536,6.359.1,2.491.032,4.989.02,7.48a1.659,1.659,0,0,0,1.393,1.892,1.708,1.708,0,0,0,.38.026c.869-.044,1.475-.826,1.448-2.01q-.038-3.442-.1-6.895-.023-1.063-.038-2.138h0q-.043-2.546-.084-5.128a3.269,3.269,0,0,1,.629.052c10.8,2.439,17.892,8.917,21.148,19.523.42,1.37.553,2.83.869,4.232a16.881,16.881,0,0,1-.058,6.24,4.146,4.146,0,0,0-.125.562,4.418,4.418,0,0,0-.116.7h0a27.165,27.165,0,0,1-34.4,21.553,26.707,26.707,0,0,1-11.133-6.5ZM448.73,459.86c3.963-1.217,6.437-3.83,7.074-7.917a22.79,22.79,0,0,0,.113-5.942,4.645,4.645,0,0,1,2.486-4.9c.64-.388,1.231-.869,1.941-1.359a6.57,6.57,0,0,1,.211,1.141c-.035,3.934.183,7.891-.2,11.793-.6,6.223-6.234,11.44-12.518,11.97,0-1.37-.046-2.738.041-4.1C447.887,460.3,448.386,459.964,448.73,459.86Zm-.249-3.372a26.472,26.472,0,0,1,4.056-9.183c.652,4.3-.22,7.607-4.064,9.183Z" transform="translate(-64.574 -46.455)" fill="#62c2e8"/>
    <path id="Path_156" data-name="Path 156" d="M457.409,454.582q-7.755-7.8-15.554-15.568c-.249-.249-.478-.519-.73-.788.235-.353.437-.649.632-.95,6.631-10.241,8.259-21.252,4.49-32.834a37.574,37.574,0,0,0-35.073-26.009,1.5,1.5,0,0,1-1.391-.756c-6.466-9.664-15.5-14.861-27.139-15.412a31.335,31.335,0,0,0-10.791,1.448,1.692,1.692,0,0,0-1.344,2.028,1.644,1.644,0,0,0,2.248,1.112c.1-.023.2-.075.307-.1a29.789,29.789,0,0,1,25.557,4.009,28.754,28.754,0,0,1,7.862,7.839c-.756.11-1.388.188-2.028.29a11.054,11.054,0,0,0-2.028.406c-.869.324-1.344-.029-1.924-.643-6.628-7.057-14.743-9.919-24.239-7.909-11.895,2.517-19.966,12.729-20.076,24.951-.041,4.3,0,8.6,0,12.9a4.821,4.821,0,0,1-1.738,4.148,6.6,6.6,0,0,1-1.892.988c-.782.29-1.593.481-2.346.826a18.659,18.659,0,0,0-1.883,1.136v1.3a2.19,2.19,0,0,0,2.865.652c.869-.359,1.776-.605,2.659-.921a9.272,9.272,0,0,0,2.393-1.254,7.93,7.93,0,0,0,3.187-6.556c.023-2.242-.02-4.482,0-6.721a72.346,72.346,0,0,1,.255-9.525c1.315-8.92,6.339-15.157,14.853-18.065,8.456-2.9,16.081-.892,22.614,5.214a6.994,6.994,0,0,1,.556.658c-1.964.936-3.908,1.738-5.713,2.764s-3.528,2.375-5.327,3.514a1.479,1.479,0,0,1-1.138-.075,9.789,9.789,0,0,0-11.715,3.219c-1.848,2.494-2.028,5.345-1.808,8.271a1.427,1.427,0,0,0,1.59,1.321,1.486,1.486,0,0,0,1.579-1.448c.078-.869,0-1.738.035-2.607a6.423,6.423,0,0,1,4.847-6.084,5.742,5.742,0,0,1,3.581.162,38.44,38.44,0,0,0-8.957,14.149c-2.1-.409-2.926.382-2.491,2.373.168.768.53,1.489.759,2.248a2.845,2.845,0,0,1,.18,1.228,37.981,37.981,0,0,0-.351,10.794c.159,1.411.4,2.813.646,4.551-1.776-1.057-3.358-1.915-4.847-2.9a7.068,7.068,0,0,0-5.768-1.109l-1.286.29c-.979.22-1.961.435-2.937.658-2.147.492-4.3.962-6.434,1.5a1.567,1.567,0,0,0-1.2,1.984,1.626,1.626,0,0,0,1.947,1.133c.249-.038.5-.087.745-.142,3.2-.73,6.405-1.448,9.6-2.2a4.316,4.316,0,0,1,2.662.183,7.377,7.377,0,0,1,1.026.5c.669.385,1.347.75,2.028,1.1,1.611.834,3.259,1.608,4.878,2.431.29.154.713.313.831.579.7,1.57,1.33,3.169,2.01,4.823a3.587,3.587,0,0,1-.66-.084c-2.462-.805-4.91-1.651-7.387-2.413a6.051,6.051,0,0,0-2.706-.449c-2.193.408-4.345,1.052-6.5,1.66a1.532,1.532,0,0,0-1.136,1.926,1.577,1.577,0,0,0,1.915,1.159,6.608,6.608,0,0,0,.739-.168c1.6-.414,3.187-.869,4.823-1.22a2.987,2.987,0,0,1,1.738.154,34.09,34.09,0,0,0,10.7,2.949,1.345,1.345,0,0,1,.869.327c1.141,1.422,2.231,2.9,3.537,4.589a63.1,63.1,0,0,1-6.341-.521c-2.581-.466-5.116-1.211-7.657-1.886a1.6,1.6,0,0,0-1.97.692,1.449,1.449,0,0,0,.2,1.889,3.029,3.029,0,0,0,1.118.614,41.289,41.289,0,0,0,17.164,2.228,1.669,1.669,0,0,1,1.014.171c1.614,1.141,3.187,2.335,4.832,3.552a3.6,3.6,0,0,1-.689.223c-2.764.29-5.525.692-8.294.785a40.665,40.665,0,0,1-11.791-1.428c-.834-.22-1.637-.11-1.944.678a2.677,2.677,0,0,0,.159,1.88c.162.35.817.55,1.286.669a48.2,48.2,0,0,0,18.274,1.072c2.028-.269,4.056-.745,6.049-1.2.716-.162,1.246-.652,2.161-.29a36.509,36.509,0,0,0,27.767.22c2.935-1.159,5.675-2.79,8.772-4.345.4.449.973,1.159,1.608,1.787a1.636,1.636,0,1,0,2.286-2.28c-.536-.562-1.083-1.115-1.509-1.547l4.108-4.056,16,15.982a3.024,3.024,0,0,1,.29.333,2.874,2.874,0,0,1,.058,3.436,2.8,2.8,0,0,1-3.161,1.057,4.636,4.636,0,0,1-1.59-1.069c-2.987-2.943-11.562-11.55-14.537-14.505a1.615,1.615,0,0,0-2.4-.2,1.586,1.586,0,0,0,.035,2.4c.519.521,6.663,6.663,7.176,7.193,2.659,2.691,5.316,5.385,8.053,8a6.064,6.064,0,0,0,8.656-.458A6.128,6.128,0,0,0,457.409,454.582ZM410.368,450.8a34.624,34.624,0,0,1-32.318-22.359,34.185,34.185,0,0,1-2.222-12.292,34.6,34.6,0,0,1,34.59-34.491c.356,0,.713,0,1.066.02a34.57,34.57,0,0,1-1.115,69.121Z"/>
    <path id="Path_157" data-name="Path 157" d="M348.36,403.928c.437-2.187.716-4.421,1.335-6.556a32.767,32.767,0,0,1,14.433-19.079,2.425,2.425,0,0,1,1.567-.513,2.318,2.318,0,0,1,1.327,1.194c.336.739-.145,1.341-.782,1.822a58.361,58.361,0,0,0-5.452,4.256,29.224,29.224,0,0,0-9.16,20.971c-.078,2.781-.026,5.565,0,8.346,0,.913-.064,1.756-1.057,2.158s-1.616-.22-2.2-.886Z" transform="translate(-0.021 -11.023)"/>
    <path id="Path_158" data-name="Path 158" d="M402,458.9c.29-2.59.53-5.635.976-8.653a11.366,11.366,0,0,1,1.211-3.105,1.574,1.574,0,0,1,2.248-.834,1.547,1.547,0,0,1,.632,2.234,16.208,16.208,0,0,0-1.59,7.975c.064,2.488,0,4.983.032,7.474a13.714,13.714,0,0,0,2.436,7.616l.185.267c.689,1.06.6,2-.249,2.561a1.693,1.693,0,0,1-2.4-.692,13.974,13.974,0,0,1-2.723-6.084C402.359,464.931,402.267,462.15,402,458.9Z" transform="translate(-38.122 -59.569)"/>
    <path id="Path_159" data-name="Path 159" d="M443.188,419.389a1.636,1.636,0,0,1-2.21,1.419,32.959,32.959,0,0,0-3.355-.794,13.613,13.613,0,0,0-9.76,2.318c-.24.156-.469.339-.718.484a1.6,1.6,0,0,1-2.274-.469,1.565,1.565,0,0,1,.458-2.193,17.069,17.069,0,0,1,6.191-2.981,17.44,17.44,0,0,1,10.316.5A1.77,1.77,0,0,1,443.188,419.389Z" transform="translate(-54.176 -38.627)"/>
    <path id="Path_160" data-name="Path 160" d="M655.36,540.707c.046-.188.087-.377.125-.562A4.144,4.144,0,0,0,655.36,540.707Zm3.169-8.627c.046.324.09.64.127.944C658.631,532.709,658.581,532.393,658.529,532.08Z" transform="translate(-218.085 -120.64)"/>
    <path id="Path_161" data-name="Path 161" d="M517.959,470.13c-.038-.3-.081-.62-.127-.944-.061-.377-.13-.75-.206-1.118a30.4,30.4,0,0,0-26.976-24.4,30.887,30.887,0,0,0-5.577-.017,30.44,30.44,0,1,0,28.807,45.931,29.242,29.242,0,0,0,3.94-10.924C517.948,478.235,518.634,475.535,517.959,470.13Zm-52.611-11.536c.655,4.3-.217,7.607-4.056,9.183A26.472,26.472,0,0,1,465.348,458.594Zm-4.673,13.248c0-.255.513-.579.849-.692,3.963-1.217,6.437-3.83,7.074-7.917a22.792,22.792,0,0,0,.113-5.942,4.645,4.645,0,0,1,2.486-4.9c.64-.388,1.231-.869,1.941-1.359a6.571,6.571,0,0,1,.211,1.141c-.035,3.934.182,7.891-.2,11.793-.6,6.223-6.234,11.44-12.518,11.97C460.646,474.568,460.6,473.2,460.675,471.842Zm54.1,5.409c-.038.185-.078.374-.125.562-.035.235-.072.469-.116.7a27.165,27.165,0,0,1-34.4,21.553,26.707,26.707,0,0,1-11.168-6.463,8.151,8.151,0,0,0,1.318-.478,9.479,9.479,0,0,1,8.274-.71,1.547,1.547,0,0,0,2.028-1.13,1.607,1.607,0,0,0-1.417-2.028c-1.2-.272-2.41-.466-3.6-.756a5.313,5.313,0,0,0-3.572.388c-1.544.69-3.149,1.246-4.745,1.808-.29.1-.828.084-.962-.093-.886-1.2-1.695-2.451-2.509-3.656,1.842-.626,3.534-1.066,5.11-1.738l.2-.09a33.792,33.792,0,0,0,4.789-2.714,3.83,3.83,0,0,1,2.923-.7,4.228,4.228,0,0,1,.437.093c3.068.814,6.153,1.567,9.241,2.318a1.605,1.605,0,1,0,.8-3.106c-.24-.081-.487-.139-.73-.2-2.092-.524-4.2-.988-6.281-1.55-.53-.142-1.06-.29-1.587-.449a7.371,7.371,0,0,0-7.115,1.26,19.258,19.258,0,0,1-8.207,3.476c-.365.07-1.063-.084-1.159-.307-.475-1.263-.808-2.578-1.2-3.9.342-.1.51-.162.684-.194,9.154-1.7,14.966-8.662,14.951-17.961,0-3.925-.093-7.854-.145-11.985l4.163-1.535c.214,2.135.4,4.056.6,5.988a1.634,1.634,0,0,0,1.738,1.669,1.56,1.56,0,0,0,1.486-1.779,25.418,25.418,0,0,0-.156-2.7c-.142-1.234-.359-2.462-.562-3.807,1.344-.084,2.567-.139,3.783-.249.672-.061,1,.168,1.052.869.168,2.121.455,4.235.536,6.359.1,2.491.032,4.989.02,7.48a1.659,1.659,0,0,0,1.393,1.892,1.7,1.7,0,0,0,.379.026c.869-.043,1.475-.826,1.448-2.01q-.038-3.442-.1-6.895-.023-1.063-.038-2.138h0q-.043-2.546-.084-5.128a3.265,3.265,0,0,1,.629.052c10.8,2.439,17.892,8.917,21.148,19.523.42,1.37.553,2.83.869,4.232a16.879,16.879,0,0,1-.012,6.2Z" transform="translate(-77.388 -57.745)"/>
    <path id="Path_162" data-name="Path 162" d="M505.314,575.137a32.2,32.2,0,0,1-7.914,3.5l.2-.09a33.8,33.8,0,0,0,4.789-2.714A3.829,3.829,0,0,1,505.314,575.137Z" transform="translate(-105.885 -151.184)" fill="#ed5f88"/>
    <path id="Path_163" data-name="Path 163" d="M471.11,504.7a26.473,26.473,0,0,1,4.056-9.183C475.826,499.816,474.954,503.127,471.11,504.7Z" transform="translate(-87.211 -94.671)" fill="#ed5f88"/>
    <path id="Path_164" data-name="Path 164" d="M481.387,482.355c-.6,6.223-6.234,11.44-12.518,11.97,0-1.37-.046-2.738.041-4.1,0-.255.513-.579.849-.692,3.963-1.217,6.437-3.83,7.074-7.917a22.8,22.8,0,0,0,.113-5.942,4.645,4.645,0,0,1,2.486-4.9c.64-.388,1.231-.869,1.941-1.359a6.573,6.573,0,0,1,.211,1.141C481.55,474.5,481.767,478.453,481.387,482.355Z" transform="translate(-85.611 -76.132)" fill="#ed5f88"/>
    <path id="Path_165" data-name="Path 165" d="M500.143,471.255a32.2,32.2,0,0,1-3.523,7.781,4.764,4.764,0,0,1-2.9-4.771v-5.313a1.564,1.564,0,0,0-1.6-1.779,1.6,1.6,0,0,0-1.631,1.773c-.035,1.011,0,2.028,0,3.036h0c0,.939-.043,1.88,0,2.819a7.788,7.788,0,0,0,4.273,6.929,32.575,32.575,0,0,1-5.272,5.391c-.53-.142-1.06-.29-1.588-.449a7.371,7.371,0,0,0-7.115,1.26,19.258,19.258,0,0,1-8.207,3.476c-.365.07-1.063-.084-1.159-.307-.475-1.263-.808-2.578-1.2-3.9.342-.1.51-.162.684-.194,9.154-1.7,14.966-8.662,14.951-17.961,0-3.925-.093-7.854-.145-11.985l4.163-1.535c.214,2.135.4,4.056.6,5.988a1.634,1.634,0,0,0,1.738,1.669,1.56,1.56,0,0,0,1.486-1.779,25.435,25.435,0,0,0-.156-2.7c-.142-1.234-.359-2.462-.562-3.807,1.344-.084,2.567-.139,3.783-.249.672-.061,1,.168,1.052.869.168,2.121.455,4.235.536,6.359.1,2.491.032,4.989.02,7.48a1.659,1.659,0,0,0,1.393,1.892A1.707,1.707,0,0,0,500.143,471.255Z" transform="translate(-86.579 -65.632)" fill="#ed5f88"/>
    <path id="Path_166" data-name="Path 166" d="M551.139,513.185a1.549,1.549,0,0,1-2.083,1.017,31.684,31.684,0,0,1-4.377-1.564l-.29-.151a7.8,7.8,0,0,1-4.273-6.93c-.049-.939,0-1.88,0-2.819h0c0-1.014-.026-2.028,0-3.036a1.612,1.612,0,0,1,1.631-1.773,1.579,1.579,0,0,1,1.6,1.779c.02,1.77,0,3.54,0,5.313a4.808,4.808,0,0,0,2.9,4.771,7.2,7.2,0,0,0,.707.29c1.023.359,2.057.678,3.068,1.06A1.572,1.572,0,0,1,551.139,513.185Z" transform="translate(-136.211 -96.383)"/>
    <path id="Path_167" data-name="Path 167" d="M655.076,561.86c-.035.235-.072.469-.116.7a4.416,4.416,0,0,1,.116-.7Z" transform="translate(-217.801 -141.792)"/>
    <path id="Path_168" data-name="Path 168" d="M665.8,529.338c-.061-.377-.13-.75-.206-1.118C665.662,528.53,665.732,528.9,665.8,529.338Z" transform="translate(-225.352 -117.898)"/>
  </g>
</svg>
