<svg xmlns="http://www.w3.org/2000/svg" width="107.827" height="102" viewBox="0 0 107.827 102">
  <g id="Iconat_per_web-03" data-name="Iconat per web-03" transform="translate(-335.64 -346.69)">
    <path id="Path_138" data-name="Path 138" d="M492.04,437.523,481.3,418.566l-14.573-25.743-2.293-.573L439.58,424.369l11.473,22.182,41.878-7.458Zm-16.283,1.958c-7.466,1.462-14.932,2.915-22.39,4.406a.96.96,0,0,1-1.243-.528q-5.147-9-10.36-17.939a.963.963,0,0,1,.04-1.29q11.4-14.473,22.759-28.98a5.455,5.455,0,0,0,.33-.546c8.191,14.185,16.267,28.175,24.395,42.25Z" transform="translate(-76.519 -33.541)" fill="#62c2e8"/>
    <path id="Path_139" data-name="Path 139" d="M383.121,595a2.108,2.108,0,0,1-.929,2.963,44.107,44.107,0,0,1-3.957,2.192,12.9,12.9,0,0,1-2.266.667c-2.68-.113-4.443-1.031-5.675-2.9a2.085,2.085,0,1,1,3.311-2.533c1.319,1.443,1.944,1.543,3.646.567.942-.528,1.868-1.111,2.828-1.62A2.149,2.149,0,0,1,383.121,595Z" transform="translate(-25.186 -182.056)" fill="#ed5f88"/>
    <path id="Path_140" data-name="Path 140" d="M437.281,580.052a2.084,2.084,0,1,1-2.11-2.023A2.084,2.084,0,0,1,437.281,580.052Z" transform="translate(-71.758 -170.308)" fill="#ed5f88"/>
    <path id="Path_141" data-name="Path 141" d="M368.694,518.85l-21.543,11.217-2.424,5.991c-5.862,17.847,15.937,15.425,15.937,15.425l19.823-11.727Zm-6.957,29.368a10.519,10.519,0,0,1-15.4-5.833,10.279,10.279,0,0,1,4.1-11.84c3.783-2.4,7.73-4.548,11.608-6.8,1.783-1.037,3.575-2.063,5.461-3.15L378,538.768c-.251.174-.459.343-.686.475C372.113,542.24,366.945,545.271,361.738,548.218Z" transform="translate(-5.953 -126.742)" fill="#ed5f88"/>
    <path id="Path_142" data-name="Path 142" d="M541.3,375.331s4.247-4.928,6.118-2.72L574.1,418.589s-1.19,3.825-3.482,4.335l-4.506-.338Z" transform="translate(-151.404 -18.664)" fill="#ed5f88"/>
    <path id="Path_143" data-name="Path 143" d="M499.576,435.159,486.045,437.8c-7.466,1.462-14.932,2.915-22.39,4.406a.96.96,0,0,1-1.243-.528q-5.147-9-10.36-17.939a.963.963,0,0,1,.04-1.29q11.4-14.473,22.759-28.969a5.461,5.461,0,0,0,.33-.546C483.372,407.1,491.442,421.092,499.576,435.159Z" transform="translate(-85.532 -34.041)" fill="#62c2e8"/>
    <path id="Path_144" data-name="Path 144" d="M375.2,518c-1.886,1.087-3.678,2.111-5.461,3.15-3.875,2.253-7.822,4.4-11.608,6.8a10.276,10.276,0,0,0-4.1,11.84,10.519,10.519,0,0,0,15.4,5.833c5.218-2.947,10.386-5.978,15.565-8.97.227-.132.435-.3.686-.475Zm-4.527,22.052a44.088,44.088,0,0,1-3.957,2.192,12.911,12.911,0,0,1-2.266.667c-2.68-.113-4.443-1.031-5.675-2.9-.72-1.09-.6.4.351-.311.91-.67.791-.63,1.657.319,1.319,1.443,4.353,1.039,6.068.063.942-.528.847-.488,1.807-1,1.227-.652.211-.9.807.127s2.4.111,1.208.834Zm6.448-4.084c-1.166,0-1.319,1.148-1.343,0s-.351-1.942.807-1.955-.063-1.232-.042-.084S378.273,535.963,377.122,535.968Z" transform="translate(-13.159 -126.116)" fill="#ed5f88"/>
    <path id="Path_145" data-name="Path 145" d="M447.86,643.273a4.215,4.215,0,0,1-7.123-.391c-3.48-6-6.941-12.011-10.487-18.158l7.057-4.055.243-.14.069.116,4.915,8.5q2.736,4.733,5.461,9.468A4.074,4.074,0,0,1,447.86,643.273Z" transform="translate(-69.65 -201.597)" fill="#62c2e8"/>
    <path id="Path_146" data-name="Path 146" d="M423.67,410.1c-2.081-3.728-4.242-7.421-6.416-11.115a1.531,1.531,0,0,1,.084-1.942c1.248-1.781,2.4-3.633,3.62-5.429a2.492,2.492,0,0,0,.113-2.939q-1.931-3.258-3.788-6.558a2.512,2.512,0,0,0-2.58-1.425c-2.171.161-4.348.237-6.514.427a1.628,1.628,0,0,1-1.815-.971c-2.279-4.068-4.643-8.091-6.965-12.135a6.32,6.32,0,0,0-4.706-3.358c-2.8-.409-4.794.876-6.479,3.034q-13.344,17.1-26.783,34.124a4.791,4.791,0,0,1-1.319,1.15q-8.294,4.815-16.6,9.574a14.438,14.438,0,0,0-6.313,6.566,43.154,43.154,0,0,0-1.567,4.981v3.372a2.35,2.35,0,0,1,.2.464,14.6,14.6,0,0,0,15.3,12.365,39.168,39.168,0,0,0,4.815-.791c.145.24.348.565.528.894l9.526,16.488a14.006,14.006,0,0,0,1.158,1.754A8.386,8.386,0,0,0,381.5,456.72a8.366,8.366,0,0,0-.667-7.856c-2.016-3.488-4.028-6.978-6.026-10.442.084-.116.113-.19.166-.222l4.458-2.591c2.021-1.171,2.266-2.082,1.105-4.1l-2.261-3.941c.456-.111.76-.2,1.055-.264l31.594-6.176c2.717-.528,5.432-1.084,8.16-1.564A6.308,6.308,0,0,0,423.67,410.1Zm-4.042,4.7a7.107,7.107,0,0,1-2.451.681c-.148.024-.412-.528-.583-.813q-7.527-13.022-15.037-26.054-4.86-8.429-9.727-16.855c-.19-.332-.375-.67-.588-1.055.327-.419.623-.855.976-1.237a2.012,2.012,0,0,1,3.19.158,7.519,7.519,0,0,1,.559.889q11.872,20.543,23.72,41.084a6.391,6.391,0,0,1,.528,1.029A1.735,1.735,0,0,1,419.628,414.8ZM340.37,428.816a10.279,10.279,0,0,1,4.1-11.84c3.783-2.4,7.73-4.548,11.608-6.8,1.783-1.037,3.575-2.063,5.461-3.15l10.5,18.174c-.251.174-.459.343-.686.475-5.187,3-10.355,6.028-15.565,8.97A10.522,10.522,0,0,1,340.37,428.816Zm24.912-25.078,1.034-1.319q10.882-13.813,21.725-27.664a5.454,5.454,0,0,0,.33-.546c7.856,13.6,15.607,27.033,23.4,40.527l.995,1.723L399.235,419.1c-7.466,1.462-14.932,2.915-22.39,4.406a.96.96,0,0,1-1.243-.528q-5.147-9-10.36-17.939A.979.979,0,0,1,365.282,403.738Zm48.542-18.731c.182,0,.422.324.554.549.768,1.293,1.527,2.593,2.253,3.912a1.027,1.027,0,0,1,.095.831c-.726,1.187-1.514,2.335-2.374,3.63-1.688-2.92-3.29-5.693-5.013-8.669C410.943,385.171,412.384,385.057,413.824,385.007Zm-40.762,72.583a4.031,4.031,0,0,1-2.992-2.111c-3.48-6-6.941-12.011-10.487-18.158l1.208-.7,5.844-3.372.243-.14.069.116,4.915,8.5q2.736,4.743,5.461,9.492a4.082,4.082,0,0,1-.129,4.656.825.825,0,0,1-.058.076A4,4,0,0,1,373.062,457.591Zm-.425-22.931c-.72-1.248-1.38-2.39-2.11-3.638l3.635-2.111c.691,1.2,1.364,2.374,2.111,3.643Z" transform="translate(0 -13.173)"/>
    <path id="Path_147" data-name="Path 147" d="M686.3,391.561c-.541-.512-1.319-.923-1.517-1.522a4.583,4.583,0,0,1,.319-2.137c.04-.164.282-.309.462-.409,3.941-2.2,7.867-4.429,11.84-6.569a2.021,2.021,0,0,1,3.007,1.438,2.1,2.1,0,0,1-1.227,2.332c-1.055.612-2.142,1.19-3.213,1.786-2.567,1.43-5.126,2.876-7.706,4.284A19.48,19.48,0,0,1,686.3,391.561Z" transform="translate(-256.993 -25.003)"/>
    <path id="Path_148" data-name="Path 148" d="M689.555,455.99c.185.042.6.124,1,.232,2.33.62,4.662,1.232,6.986,1.881a2.107,2.107,0,1,1-1.09,4.034c-2.538-.652-5.073-1.319-7.6-2.023a2.092,2.092,0,1,1,.7-4.123Z" transform="translate(-258.71 -80.462)"/>
    <path id="Path_149" data-name="Path 149" d="M648.311,349.146c-.137.528-.327,1.266-.528,2.008-.528,2.026-1.055,4.06-1.63,6.068a2.1,2.1,0,1,1-4.057-1.013c.654-2.638,1.367-5.276,2.11-7.9a2.071,2.071,0,0,1,2.39-1.583A2.19,2.19,0,0,1,648.311,349.146Z" transform="translate(-225.543)"/>
    <path id="Path_150" data-name="Path 150" d="M382.193,597.955a44.091,44.091,0,0,1-3.957,2.192,12.911,12.911,0,0,1-2.266.667c-2.68-.113-4.443-1.031-5.675-2.9a2.085,2.085,0,1,1,3.311-2.533c1.319,1.443,1.944,1.543,3.646.567.942-.528,1.868-1.111,2.828-1.62a2.144,2.144,0,0,1,3.039.662A2.12,2.12,0,0,1,382.193,597.955Z" transform="translate(-25.186 -182.05)"/>
    <path id="Path_151" data-name="Path 151" d="M437.281,580.052a2.084,2.084,0,1,1-2.11-2.023A2.084,2.084,0,0,1,437.281,580.052Z" transform="translate(-71.758 -170.308)"/>
  </g>
</svg>
