<svg xmlns="http://www.w3.org/2000/svg" width="106.508" height="106.494" viewBox="0 0 106.508 106.494">
  <g id="Iconat_per_web-01" data-name="Iconat per web-01" transform="translate(-355.53 -361.189)">
    <path id="Path_117" data-name="Path 117" d="M470.305,475.28a7.524,7.524,0,0,1-6.035,2.033l8.888-9.493A8.2,8.2,0,0,1,470.305,475.28Z" transform="translate(-78.539 -77.015)" fill="#62c2e8"/>
    <path id="Path_118" data-name="Path 118" d="M562,390.749l2.419-2.589.555.53A5.08,5.08,0,0,1,562,390.749Z" transform="translate(-149.125 -19.48)" fill="#62c2e8"/>
    <path id="Path_119" data-name="Path 119" d="M553.562,531.306c-3.152-1.583-6.3-3.174-9.479-4.722a2.594,2.594,0,0,1-1.389-1.53c-2.069-5.469-4.183-10.918-6.26-16.387a2.74,2.74,0,0,0-1.586-1.783q-21.211-8.443-42.408-16.942a1.944,1.944,0,0,0-2.347.5c-1.666,1.711-3.333,3.419-5.077,5.063a2.209,2.209,0,0,0-.555,2.777q8.413,20.941,16.759,41.911a2.919,2.919,0,0,0,1.839,1.794c5.5,2.083,10.982,4.21,16.481,6.291a2.471,2.471,0,0,1,1.447,1.347q2.3,4.721,4.688,9.376a8.986,8.986,0,0,0,1.205,1.505h1.039a13.333,13.333,0,0,0,1.042-.833q12.579-12.562,25.144-25.135C555.417,533.223,555.247,532.148,553.562,531.306Zm-33.2,13.8c-5.085-1.994-10.2-3.933-15.276-5.935a2.15,2.15,0,0,1-1.089-1.069q-8.01-19.872-15.959-39.758a1.069,1.069,0,0,1,.425-1.528l21.464,21.464a9.721,9.721,0,0,0-1.111,8.474,9.442,9.442,0,0,0,4.072,5.21,9.79,9.79,0,1,0-.275-16.428l-21.425-21.425c.392-.728.925-.742,1.75-.408q19.639,7.9,39.311,15.714a2.389,2.389,0,0,1,1.5,1.528q2.841,7.524,5.777,15a1.263,1.263,0,0,1-.35,1.611q-8.643,8.579-17.2,17.206A1.27,1.27,0,0,1,520.358,545.11ZM511.643,523.7a6.457,6.457,0,1,1,6.43,6.484,6.455,6.455,0,0,1-6.43-6.484Zm16.148,32.159-3.969-7.916,18.525-18.492,7.9,3.949Z" transform="translate(-92.935 -92.85)" fill="#62c2e8"/>
    <circle id="Ellipse_4" data-name="Ellipse 4" cx="6.038" cy="6.038" r="6.038" transform="translate(379.677 452.613)" fill="#ed5f88"/>
    <path id="Path_120" data-name="Path 120" d="M689.861,450.67a6.041,6.041,0,1,0,6.041,6.041A6.041,6.041,0,0,0,689.861,450.67Zm.405,10.387-4.672-4.722,4.488-4.48,4.691,4.7Z" transform="translate(-237.111 -64.628)" fill="#ed5f88"/>
    <path id="Path_121" data-name="Path 121" d="M699.629,457.467l-4.508,4.5-4.672-4.722,4.488-4.48Z" transform="translate(-241.9 -66.145)" fill="#ed5f88"/>
    <path id="Path_122" data-name="Path 122" d="M457.415,453.712a5.141,5.141,0,0,1-5.241,5.174,5.213,5.213,0,0,1-5.174-5.18,5.277,5.277,0,0,1,5.221-5.247,5.2,5.2,0,0,1,5.194,5.252Z" transform="translate(-66.065 -63.032)" fill="#ed5f88"/>
    <path id="Path_123" data-name="Path 123" d="M551.863,534.169q-8.629,8.571-17.2,17.2a1.27,1.27,0,0,1-1.611.347c-5.085-1.994-10.2-3.933-15.276-5.935a2.15,2.15,0,0,1-1.089-1.069q-8.007-19.872-15.97-39.758a1.069,1.069,0,0,1,.425-1.528l21.464,21.464a9.721,9.721,0,0,0-1.111,8.474,9.443,9.443,0,0,0,4.072,5.21,9.791,9.791,0,1,0-.278-16.434l-21.425-21.425c.392-.728.925-.742,1.75-.408q19.639,7.9,39.311,15.714a2.388,2.388,0,0,1,1.5,1.528q2.841,7.524,5.777,15A1.276,1.276,0,0,1,551.863,534.169Z" transform="translate(-104.759 -100.326)" fill="#62c2e8"/>
    <path id="Path_124" data-name="Path 124" d="M371.426,557.227a1.611,1.611,0,0,1-1.591,1.7,1.744,1.744,0,0,1-1.791-1.758,1.528,1.528,0,0,1,1.528-1.619,1.725,1.725,0,0,1,1.855,1.68Z" transform="translate(-9.036 -140.373)" fill="#ed5f88"/>
    <path id="Path_125" data-name="Path 125" d="M458.718,696.888,454,701.609l-4.616-4.658,4.672-4.722Z" transform="translate(-67.784 -239.098)" fill="#ed5f88"/>
    <path id="Path_126" data-name="Path 126" d="M554.921,373.556a1.761,1.761,0,1,1-.409-1.3A1.75,1.75,0,0,1,554.921,373.556Z" transform="translate(-141.491 -7.545)" fill="#ed5f88"/>
    <path id="Path_127" data-name="Path 127" d="M461.235,390.4q-3.366-3.394-6.766-6.763a1.726,1.726,0,0,0-2.861,0c-.847.85-1.641,1.75-2.38,2.544-8.274-5.752-16.778-8.974-25.574-9.69a50.2,50.2,0,0,0-17.261,1.7,62.893,62.893,0,0,0-6.244,2.047c.347-.364.575-.611.811-.847,2.552-2.544,5.121-5.074,7.649-7.643a1.629,1.629,0,0,1,1.866-.555,4.763,4.763,0,0,0,2.4.064,5.079,5.079,0,0,0,2.986-2.058c.094-.142.186-.278.278-.436a5.091,5.091,0,0,0-7.038-6.86,5,5,0,0,0-2.266,5.832,1.267,1.267,0,0,1-.4,1.511q-7.449,7.416-14.859,14.856c-.214.217-.447.411-.658.6-4.51-2.575-8.332-1.189-10.379.753-3.474,3.286-3.741,7.107-1.569,11.162-5.252,5.277-10.457,10.51-15.684,15.72a1.389,1.389,0,0,1-.964.231,18.656,18.656,0,0,0-2.044-.236c-2.541.164-3.963,1.722-4.749,4v2.3c.136.278.278.533.406.808a5.085,5.085,0,0,0,6.31,2.777,5,5,0,0,0,3.263-6.132,1.474,1.474,0,0,1,.439-1.7c2.827-2.8,5.6-5.655,8.482-8.432a60.56,60.56,0,0,0-2.752,9.374,49.063,49.063,0,0,0-.833,14.706q1.258,12.823,9.649,24.9c-.805.744-1.714,1.539-2.572,2.386-.994.983-1.011,1.816-.058,2.777q3.433,3.475,6.91,6.907a8.2,8.2,0,0,0,.9.686h1.039c2.636-2.6,5.277-5.18,7.891-7.8a1.588,1.588,0,0,0-.089-2.408q-3.491-3.566-7.027-7.088a1.687,1.687,0,0,0-2.65,0c-.642.628-1.211,1.328-1.833,2.019a44.2,44.2,0,0,1-8.216-18.684,46.383,46.383,0,0,1,1.725-23.583,39.714,39.714,0,0,1,5.608-10.7,14.014,14.014,0,0,0,3.611.858,7.524,7.524,0,0,0,6.032-2.028,8.161,8.161,0,0,0,2.858-7.468,12.155,12.155,0,0,0-.869-3,42.552,42.552,0,0,1,7.732-4.369,45.956,45.956,0,0,1,26.407-2.952,43.147,43.147,0,0,1,18.706,8.193c-.578.555-1.153,1.111-1.716,1.666-1.111,1.111-1.136,1.925-.044,3.013q3.35,3.333,6.716,6.666c1.078,1.061,1.886,1.067,2.944.014q3.369-3.344,6.7-6.7C462.279,392.243,462.3,391.466,461.235,390.4Zm-51.279-24.26a1.744,1.744,0,0,1,1.861-1.558,1.766,1.766,0,1,1-.305,3.519,1.747,1.747,0,0,1-1.555-1.961Zm-49.16,52.9A1.744,1.744,0,0,1,359,417.276a1.528,1.528,0,0,1,1.528-1.619,1.725,1.725,0,0,1,1.855,1.666,1.611,1.611,0,0,1-1.589,1.7Zm25.449,34.953,4.688,4.663-4.722,4.722-4.616-4.658Zm-.139-56.92a5.213,5.213,0,0,1-5.172-5.185,5.277,5.277,0,0,1,5.221-5.247,5.2,5.2,0,0,1,5.183,5.252,5.141,5.141,0,0,1-5.23,5.166Zm71.554-5.13-4.513,4.491-4.672-4.721,4.488-4.48Z" transform="translate(0 0)"/>
    <path id="Path_128" data-name="Path 128" d="M553.562,531.306c-3.152-1.583-6.3-3.174-9.479-4.722a2.594,2.594,0,0,1-1.389-1.53c-2.069-5.469-4.183-10.918-6.26-16.387a2.74,2.74,0,0,0-1.586-1.783q-21.211-8.443-42.408-16.942a1.944,1.944,0,0,0-2.347.5c-1.666,1.711-3.333,3.419-5.077,5.063a2.209,2.209,0,0,0-.555,2.777q8.413,20.941,16.759,41.911a2.919,2.919,0,0,0,1.839,1.794c5.5,2.083,10.982,4.21,16.481,6.291a2.471,2.471,0,0,1,1.447,1.347q2.3,4.721,4.688,9.376a8.986,8.986,0,0,0,1.205,1.505h1.039a13.333,13.333,0,0,0,1.042-.833q12.579-12.562,25.144-25.135C555.417,533.223,555.247,532.148,553.562,531.306Zm-33.2,13.8c-5.085-1.994-10.2-3.933-15.276-5.935a2.15,2.15,0,0,1-1.089-1.069q-8.01-19.872-15.959-39.758a1.069,1.069,0,0,1,.425-1.528l21.464,21.464a9.721,9.721,0,0,0-1.111,8.474,9.442,9.442,0,0,0,4.072,5.21,9.79,9.79,0,1,0-.275-16.428l-21.425-21.425c.392-.728.925-.742,1.75-.408q19.639,7.9,39.311,15.714a2.389,2.389,0,0,1,1.5,1.528q2.841,7.524,5.777,15a1.263,1.263,0,0,1-.35,1.611q-8.643,8.579-17.2,17.206A1.27,1.27,0,0,1,520.358,545.11ZM511.643,523.7a6.457,6.457,0,1,1,6.43,6.484,6.455,6.455,0,0,1-6.43-6.484Zm16.148,32.159-3.969-7.916,18.525-18.492,7.9,3.949Z" transform="translate(-92.935 -92.85)"/>
    <path id="Path_129" data-name="Path 129" d="M656.419,633.5l-22.458,22.45L630,648.032l18.525-18.492Z" transform="translate(-198.239 -193.819)" fill="#62c2e8"/>
  </g>
</svg>
