<svg xmlns="http://www.w3.org/2000/svg" width="117.251" height="107.494" viewBox="0 0 117.251 107.494">
  <g id="Iconat_per_web-02" data-name="Iconat per web-02" transform="translate(-354.139 -369.706)">
    <path id="Path_130" data-name="Path 130" d="M539.812,558.062l-.082-.028.006,0Z" transform="translate(-127.014 -128.885)" fill="#ed5f88"/>
    <path id="Path_131" data-name="Path 131" d="M504.129,572.155,477,581.863,447.25,571.322l19.992-7.174,4.381-1.578,1.2-.429,2.7.988a3.343,3.343,0,0,0,2.121-.028c.764-.278,1.528-.552,2.291-.833l1.512.631,3.69,1.509Z" transform="translate(-63.723 -131.697)" fill="#ed5f88"/>
    <path id="Path_132" data-name="Path 132" d="M478.447,605.567l-5.558,1.992L425.3,624.6l-48.29-17.113-5.075-1.8-.234-.316q8.926-3.263,17.842-6.54c.354-.129.7-.281,1.278-.511-.543-.234-.874-.395-1.218-.521l-2.724-1,3.551-1.263,2-.72q15.658,5.738,31.354,11.467a3.362,3.362,0,0,0,2.121,0q14.6-5.312,29.179-10.668l2.111.862h0l3.087,1.263-.183.066c-.347.129-.685.284-1.3.536,2.052.761,3.835,1.43,5.624,2.086Z" transform="translate(-12.018 -154.063)" fill="#ed5f88"/>
    <path id="Path_133" data-name="Path 133" d="M504.918,504.589l-26.525,9.494-.483-.17-.082-.028L449.28,503.771l19.947-7.161,3.466-1.247,2.121-.761,3.021-1.083,2.926,1.2,2.373.969h0l2.828,1.158Z" transform="translate(-65.112 -84.736)" fill="#e073e5"/>
    <path id="Path_134" data-name="Path 134" d="M478.378,540.372l-5.5,1.973-21.061,7.537L424.69,559.59l-29.754-10.542-19.168-6.789-4.46-1.578-.5-.631q9.055-3.308,18.1-6.628c.357-.129.707-.281,1.288-.511-.543-.234-.874-.395-1.215-.521l-2.127-.783,3.9-1.423,1.654-.593,5.05,1.85h0q11.52,4.223,23.04,8.427l2.7.988a3.343,3.343,0,0,0,2.121-.028c.764-.278,1.528-.552,2.291-.833q10.8-3.914,21.579-7.891l4.734-1.733,1.777.723,3.428,1.4-.868.347c.537.23.868.391,1.212.518l17.624,6.477Z" transform="translate(-11.409 -109.421)" fill="#e073e5"/>
    <path id="Path_135" data-name="Path 135" d="M478.432,449.726l-5.53,1.979-21.633,7.742-26.512,9.494-.483-.17-.082-.028-28.548-10.1-19.79-7.01-4.479-1.578-.486-.631,18.082-6.628c.36-.133.71-.281,1.3-.514-.543-.234-.871-.391-1.215-.518l-2.171-.808,2.979-1.073,2.579-.925,31.749-11.4,29.8,12.177,2.654,1.086h0l2.525,1.038-.631.237v.278q2.686,1,5.366,1.992,6.944,2.547,13.868,5.091Z" transform="translate(-11.464 -39.594)" fill="#a672e8"/>
    <path id="Path_136" data-name="Path 136" d="M474.829,396.816l-53.684,19.215-53.381-18.912-2.134-2.746,54.956-19.723Z" transform="translate(-7.864 -3.384)" fill="#62c2e8"/>
    <path id="Path_137" data-name="Path 137" d="M448.271,443.673l16.412-6.038c1.771-.65,3.548-1.288,5.315-1.947a1.885,1.885,0,0,0,1.386-1.856A1.9,1.9,0,0,0,469.97,432c-.259-.1-.518-.186-.776-.281l-3.516-1.291-17.624-6.477c-.344-.126-.675-.287-1.212-.518l.868-.347c.145-.06.281-.11.417-.161q10.731-3.948,21.462-7.891c.947-.347,1.752-.8,1.777-1.935.028-1.193-.786-1.679-1.786-2.042l-3.292-1.2q-6.944-2.525-13.868-5.091-2.689-.988-5.366-1.992V402.5l.631-.237,12.518-4.592c3.21-1.177,6.426-2.339,9.626-3.544,1.61-.606,2.07-2.209.928-3.226a4.611,4.611,0,0,0-1.458-.742q-8.576-3.156-17.16-6.29-18.988-6.959-37.988-13.887a3.773,3.773,0,0,0-2.358-.139q-28.037,10.2-56.029,20.516a2.841,2.841,0,0,0-1.3.931c-.761,1.1-.142,2.314,1.382,2.875l19.572,7.2,2.159.8c.344.126.672.284,1.215.518-.587.234-.947.382-1.3.514l-18.082,6.628-3.175,1.165c-.148.054-.29.123-.439.17a1.94,1.94,0,0,0-1.578,1.944,1.966,1.966,0,0,0,1.543,1.856q9.847,3.6,19.685,7.218l2.127.783c.341.126.672.287,1.215.521-.581.23-.931.382-1.288.511q-9.049,3.317-18.1,6.628l-3.27,1.2c-1.013.369-1.935.808-1.913,2.074.019,1.193.887,1.622,1.872,1.982q9.383,3.421,18.754,6.877l2.724,1c.344.126.675.287,1.218.521-.574.23-.925.382-1.278.511q-8.919,3.273-17.842,6.54l-3.529,1.291c-1.013.369-1.938.8-1.919,2.071.016,1.193.881,1.625,1.865,1.985l55.588,20.355a3.564,3.564,0,0,0,2.257,0q27.866-10.16,55.7-20.4c.947-.35,1.742-.821,1.758-1.947,0-1.2-.814-1.67-1.809-2.029l-3.156-1.149q-7.01-2.56-14.014-5.141c-1.79-.657-3.573-1.326-5.624-2.086.612-.252.947-.407,1.3-.537Zm-85.392-50.948c-.294-.107-.578-.237-1.076-.442.448-.215.726-.379,1.026-.489q24.515-9,49.042-17.956a2.84,2.84,0,0,1,1.786-.032q24.584,8.964,49.152,17.991c.3.11.581.271,1.064.5l-18.833,6.915-2.525.922-4.419,1.625q-11.22,4.122-22.457,8.206l-1.717.631a3.364,3.364,0,0,1-2.121.032l-2.1-.748q-11.994-4.368-23.987-8.771l-4.734-1.733Zm.1,20.831c-.316-.12-.631-.256-1.18-.47.458-.218.739-.382,1.038-.492l1.54-.565c6.385-2.345,12.77-4.693,19.171-6.988a3.191,3.191,0,0,1,2.007.051q9.292,3.361,18.559,6.786l5.028,1.856h0l2.314.855a3.661,3.661,0,0,0,2.724-.019l1.96-.723q2.351-.871,4.709-1.736,9.554-3.529,19.13-6.978a3.75,3.75,0,0,1,2.339-.016c6.388,2.291,12.751,4.649,19.117,7l1.143.423c.353.129.7.278,1.36.543-6.555,2.411-12.783,4.706-19.016,6.994l-2.415.887-4.734,1.733q-10.785,3.952-21.579,7.891c-.764.281-1.528.555-2.291.833a3.342,3.342,0,0,1-2.121.028l-2.7-.988q-11.527-4.2-23.04-8.427h0l-5.05-1.85ZM460.871,453.5l2.209.811c.18.066.357.148.871.366l-9.125,3.346q-20.421,7.5-40.848,14.967a3.507,3.507,0,0,1-2.231.025q-24.372-8.872-48.71-17.839c-.354-.129-.7-.284-1.263-.514.549-.234.887-.391,1.234-.521l1.966-.723c6.129-2.257,12.256-4.523,18.407-6.723a3.542,3.542,0,0,1,2.228.019q12.918,4.662,25.793,9.469a3.787,3.787,0,0,0,2.841,0q12.884-4.772,25.8-9.447a3.049,3.049,0,0,1,1.894-.12C448.255,448.853,454.561,451.179,460.871,453.5Zm-17.8-11.949q-14.582,5.35-29.179,10.668a3.361,3.361,0,0,1-2.121,0q-15.7-5.719-31.37-11.467l-17.451-6.4c-.316-.117-.631-.259-1.262-.527l2.68-.982,9.8-3.6c3.062-1.124,6.107-2.291,9.194-3.339a3.617,3.617,0,0,1,2.231,0q8.97,3.235,17.924,6.549,3.933,1.442,7.862,2.9a3.787,3.787,0,0,0,2.841,0q3.6-1.335,7.2-2.658,9.289-3.425,18.6-6.78a3.706,3.706,0,0,1,2.339,0c6.388,2.288,12.748,4.646,19.114,6.994l1.146.423c.35.126.688.281,1.288.53-2.007.748-3.753,1.411-5.5,2.052Z"/>
  </g>
</svg>
