<svg id="Layer_1" data-name="Layer 1" xmlns="http://www.w3.org/2000/svg" xmlns:xlink="http://www.w3.org/1999/xlink" viewBox="0 0 500 500"><defs><style>.cls-1{fill:url(#linear-gradient);}</style><linearGradient id="linear-gradient" x1="75.56" y1="398.68" x2="371.18" y2="103.06" gradientUnits="userSpaceOnUse"><stop offset="0" stop-color="#7bbee1"/><stop offset="1" stop-color="#db6886"/></linearGradient></defs><path class="cls-1" d="M219,230.06c17.25,13.24,27.74,30,31.54,51.05,7.76,43-24.12,86.15-67.55,91.13a137.79,137.79,0,0,1-15.47.89q-55.07.11-110.13,0c-9.78,0-12.38-2.63-12.38-12.53q0-112.15,0-224.3c0-9.84,2.57-12.38,12.5-12.38q51.06,0,102.12,0c34.17.07,62.59,23.41,68.86,56.84a65.71,65.71,0,0,1-6.92,44.6C220.74,226.84,219.94,228.28,219,230.06ZM91.32,327.15c1.56.12,2.55.27,3.54.27q38.79,0,77.58,0a35.1,35.1,0,0,0,7.46-.66c16.26-3.59,27.52-18.79,26-34.92A32.91,32.91,0,0,0,173.21,262c-26-.14-52.06-.05-78.09,0a31.68,31.68,0,0,0-3.8.45Zm0-112.13c24.27,0,48,.26,71.62-.24,4.08-.09,8.64-2.68,12-5.33A21.37,21.37,0,0,0,181.54,185a22.75,22.75,0,0,0-21.62-15c-21.85-.1-43.7,0-65.56,0-.94,0-1.89.2-3,.32Zm221.2,74.44c4.89,18,14.5,30.79,31,37.25,16.26,6.36,31.83,4.3,45.55-7a14.17,14.17,0,0,1,9.88-3.61c13,.19,26,.06,39,.08,7.77,0,8.81,2,5,8.93-14.25,26.07-35.55,43.1-64.76,49-47.51,9.66-93.35-18.22-108.56-65.41C253.55,258.64,279.9,203.29,328.12,186c52.31-18.74,108.8,11.61,123,66.43,2.36,9.12,2.89,18.72,3.94,28.13.46,4.12-3.19,8-7.48,8.67a42.69,42.69,0,0,1-6,.22q-61.05,0-122.1,0ZM319,249.67h81.05c-10-14.82-23-23.13-40.31-23.07S329.21,235.11,319,249.67Zm-3-115.86c-6.09,0-8.49,2.36-8.61,8.46s-.15,12.35,0,18.52c.14,5.78,2.61,8.21,8.37,8.22q41,.09,82.07,0c5.48,0,8-2.52,8.07-8q.17-9.26,0-18.52c-.11-6.43-2.44-8.71-8.85-8.73-13.51,0-27,0-40.53,0S329.56,133.76,316.05,133.81Z"/></svg>