<svg id="Layer_1" data-name="Layer 1" xmlns="http://www.w3.org/2000/svg" xmlns:xlink="http://www.w3.org/1999/xlink" viewBox="0 0 500 500"><defs><style>.cls-1{fill:url(#linear-gradient);}</style><linearGradient id="linear-gradient" x1="161.46" y1="338.56" x2="338.22" y2="161.81" gradientUnits="userSpaceOnUse"><stop offset="0" stop-color="#7bbee1"/><stop offset="1" stop-color="#db6886"/></linearGradient></defs><path class="cls-1" d="M301.23,363.8c-39.6,18.64-91.51,13.95-128-15.69,21.1-42.28,54.27-70.08,99.83-83.81A512.2,512.2,0,0,1,301.23,363.8Zm-174-133.37c41.82,3,82.51-1.92,122.18-16.29a499.35,499.35,0,0,0-51.76-77.32C153.35,157.63,130.62,198.25,127.25,230.43Zm-1.7,14.65c-4.31,27.1,17.3,81.84,36.49,92.77a169.88,169.88,0,0,1,43.47-54.31,167,167,0,0,1,61.91-32.61l-11.27-23.72C213.59,242.93,170.11,248.3,125.55,245.08ZM263.2,208.53A292,292,0,0,0,338.43,162c-18.79-18.51-40.79-30.35-66.56-34.9a120.66,120.66,0,0,0-59.56,4A505.3,505.3,0,0,1,263.2,208.53ZM373.13,271c-27.77-11.19-56-14.56-85.59-9.7A511.54,511.54,0,0,1,314.74,357C346.67,336.26,366.1,307.94,373.13,271ZM375,255.6c.72-30.8-7.68-58.24-26.54-82.65a306.81,306.81,0,0,1-78.27,48.69c4,8.71,7.89,17.17,11.92,25.94A170.31,170.31,0,0,1,375,255.6Z"/></svg>