<svg id="Layer_1" data-name="Layer 1" xmlns="http://www.w3.org/2000/svg" xmlns:xlink="http://www.w3.org/1999/xlink" viewBox="0 0 500 500"><defs><style>.cls-1{fill:url(#linear-gradient);}</style><linearGradient id="linear-gradient" x1="144.71" y1="355.3" x2="355.31" y2="144.7" gradientUnits="userSpaceOnUse"><stop offset="0" stop-color="#7bbee1"/><stop offset="1" stop-color="#db6886"/></linearGradient></defs><path class="cls-1" d="M375.09,186c-4-26.06-16.83-45.42-42.16-55.19a92.17,92.17,0,0,0-32-6c-33.83-.18-67.85-.18-101.86,0-13.93.18-27.32,2.9-39.81,9.41-23.34,12.67-33.47,33.47-35.1,58.63-1.08,19-.18,38-.18,56.81h-.36c0,15.56-.18,31.12,0,46.68A115.13,115.13,0,0,0,124.85,314c3.81,24.24,15.38,43.24,38.36,53.74a88.08,88.08,0,0,0,36.55,7.42c32,.18,63.87.18,95.9,0a135,135,0,0,0,20.8-1.63c25.7-4.16,44.88-17.37,54.47-42.52a91.7,91.7,0,0,0,5.43-32q.27-47.49,0-95A100,100,0,0,0,375.09,186ZM250.43,316.49a66.49,66.49,0,1,1,66-66A66.22,66.22,0,0,1,250.43,316.49ZM317,197.08a13.21,13.21,0,1,1,13.21-13A13.17,13.17,0,0,1,317,197.08Zm-24.07,53.55A43,43,0,0,1,249.52,293c-23.89-.54-42.88-19.9-42.52-43.6a43,43,0,1,1,85.94,1.26Z"/></svg>