<svg id="Layer_1" data-name="Layer 1" xmlns="http://www.w3.org/2000/svg" viewBox="0 0 1080 1080"><defs><style>.cls-1{fill:#ed5f88;}.cls-2,.cls-4{fill:#62c2e8;}.cls-2{opacity:0.5;}.cls-3{fill:none;}.cls-5{fill:#231f20;}.cls-6{fill:#a291b4;}</style></defs><polygon class="cls-1" points="608.92 498.07 540 598.68 471.08 498.07 471.22 497.77 540 598.18 608.78 497.77 608.92 498.07"/><polygon class="cls-2" points="608.92 497.57 608.78 497.77 540 352.92 471.22 497.77 471.08 497.57 539.88 352.67 540 352.42 540.12 352.67 608.92 497.57"/><polygon class="cls-3" points="530.36 612.75 532.25 615.5 532.44 615.76 539.75 626.47 540 626.09 540.25 626.47 547.56 615.76 547.75 615.5 549.64 612.75 540 598.68 530.36 612.75"/><polygon class="cls-3" points="316.79 329.87 316.79 750.07 327.37 727.08 327.37 345.3 316.79 329.87"/><path class="cls-3" d="M549.64,332.6l-3.72-7.84-.94-1.95c-2.14-4.28-3.53-7.88-5-11.4-1.45,3.52-2.83,7.12-5,11.4l-.94,1.95-3.72,7.84L540,352.92Z"/><polygon class="cls-3" points="608.92 498.07 540 598.68 471.08 498.07 471.22 497.77 540 598.18 608.78 497.77 608.92 498.07"/><polygon class="cls-3" points="752.61 345.31 752.61 727.06 752.62 727.08 763.21 750.07 763.21 329.87 752.62 345.3 752.61 345.31"/><path class="cls-4" d="M520.72,311.41c-1.45,3.52-2.83,7.12-5,11.4l-1,1.95-10.38,21.88,16.51-34.73Z"/><polygon class="cls-4" points="471.08 498.07 540 598.68 530.36 612.75 451.8 498.07 530.36 332.6 539.88 352.67 540 352.92 471.22 497.77 471.08 498.07"/><path class="cls-1" d="M565.2,324.76l-1-1.95c-2.14-4.28-3.52-7.88-5-11.4l-.21.5,16.36,34.41Z"/><polygon class="cls-1" points="628.2 498.07 549.64 612.75 540 598.68 608.92 498.07 608.78 497.77 540 352.92 540.12 352.67 549.64 332.6 628.2 498.07"/><polygon class="cls-1" points="647.6 498.64 752.61 727.06 752.61 345.31 647.6 498.64"/><polygon class="cls-4" points="327.37 345.3 327.37 727.08 327.38 727.08 432.4 498.64 327.38 345.3 327.37 345.3"/><path class="cls-5" d="M767.43,294.84,639.67,481.38,575.43,346.32,564.35,323l-.1-.2-1.66-3.49-3.52-7.41-8.36-17.58H529.29l-8.36,17.58-3.53,7.43-1.65,3.47-.07.14-11.26,23.69L440.33,481.38,312.57,294.84H299.22V785.67h20.41L390,632.83l7.81-17.07,2.46-5.36,43.59-95.06L512.6,615.76l11.71,17.07,10.52,15.37h10.34l10.52-15.37,11.71-17.07,68.74-100.42,43.59,95.06,2.46,5.36L690,632.83l70.37,152.84h20.41V294.84Zm-440,432.24h0l-10.58,23V329.87l10.58,15.43h0l105,153.34ZM549.64,612.75l-1.89,2.75-.19.26-7.31,10.71-.25-.38-.25.38-7.31-10.71-.19-.26-1.89-2.75L451.8,498.07,530.36,332.6l3.72-7.84.94-1.95c2.15-4.28,3.53-7.88,5-11.4,1.45,3.52,2.84,7.12,5,11.4l.94,1.95,3.72,7.84L628.2,498.07ZM763.21,750.07l-10.59-23v0l-105-228.42,105-153.33h0l10.59-15.43Z"/><polygon class="cls-6" points="608.78 497.77 540 598.18 471.22 497.77 540 352.92 608.78 497.77"/></svg>