<svg id="Layer_1" data-name="Layer 1" xmlns="http://www.w3.org/2000/svg" xmlns:xlink="http://www.w3.org/1999/xlink" viewBox="0 0 1975.11 355.73"><defs><style>.cls-1{fill:#6b6b6b;}.cls-2{fill:url(#linear-gradient);}.cls-3{fill:url(#linear-gradient-2);}</style><linearGradient id="linear-gradient" x1="265.54" y1="547.08" x2="2099.02" y2="547.08" gradientUnits="userSpaceOnUse"><stop offset="0" stop-color="#ed5f88"/><stop offset="0.5" stop-color="#a391b5"/><stop offset="1" stop-color="#62c2e8"/></linearGradient><linearGradient id="linear-gradient-2" x1="257.56" y1="547.94" x2="2107.68" y2="547.94" xlink:href="#linear-gradient"/></defs><path class="cls-1" d="M225,603.14a15.28,15.28,0,0,1-5.41,9.8,16.72,16.72,0,0,1-11.1,3.79,16.44,16.44,0,0,1-12-4.67,17.09,17.09,0,0,1,0-23.67,16.41,16.41,0,0,1,12-4.62,16.78,16.78,0,0,1,11.05,3.74,15.32,15.32,0,0,1,5.46,9.81h-6.62a9.8,9.8,0,0,0-9.89-7.63,9.68,9.68,0,0,0-7.35,3,10.43,10.43,0,0,0-2.87,7.53,10.73,10.73,0,0,0,2.87,7.68,9.71,9.71,0,0,0,7.35,3,9.83,9.83,0,0,0,9.89-7.72Z" transform="translate(-191.67 -370.02)"/><path class="cls-1" d="M240.44,593a12.25,12.25,0,0,1,8.83,3.33,11.38,11.38,0,0,1,3.47,8.55,11.23,11.23,0,0,1-3.47,8.51,13.4,13.4,0,0,1-17.66,0,11.12,11.12,0,0,1-3.51-8.51,11.27,11.27,0,0,1,3.51-8.55A12.25,12.25,0,0,1,240.44,593Zm0,5.22a5.67,5.67,0,0,0-4.4,1.85,6.84,6.84,0,0,0-1.71,4.81c0,3.84,2.55,6.61,6.11,6.61s6.15-2.77,6.15-6.61a6.84,6.84,0,0,0-1.71-4.81A5.77,5.77,0,0,0,240.4,598.24Z" transform="translate(-191.67 -370.02)"/><path class="cls-1" d="M276.32,595.51a9.48,9.48,0,0,1,2.31,6.52v14.29h-6V602.91c0-3.1-1.94-5.09-4.76-5.09s-4.81,2.09-4.81,5.09v13.41H257V593.48h6.06v3.42a7.89,7.89,0,0,1,7.17-3.88A8,8,0,0,1,276.32,595.51Z" transform="translate(-191.67 -370.02)"/><path class="cls-1" d="M307,606.7a10.56,10.56,0,0,1-3.84,7.21,13.34,13.34,0,0,1-17-.5,11.13,11.13,0,0,1-3.52-8.51,11.27,11.27,0,0,1,3.52-8.55,13.33,13.33,0,0,1,17-.51A10.65,10.65,0,0,1,307,603.1h-6.11a6,6,0,0,0-5.87-4.86c-3.65,0-6.19,2.77-6.19,6.66s2.63,6.61,6.19,6.61A6,6,0,0,0,301,606.7Z" transform="translate(-191.67 -370.02)"/><path class="cls-1" d="M334.34,606.75H315.89a6.49,6.49,0,0,0,6.38,5.08,6.27,6.27,0,0,0,5.78-3.65h6.06a10.81,10.81,0,0,1-4.3,6.15,12.53,12.53,0,0,1-7.58,2.4,12.28,12.28,0,0,1-8.83-3.32,11.13,11.13,0,0,1-3.52-8.51,11.27,11.27,0,0,1,3.52-8.55,13.31,13.31,0,0,1,17.61,0,11.75,11.75,0,0,1,3.52,8.59A6.94,6.94,0,0,1,334.34,606.75Zm-18.22-4.58h12.53a6.68,6.68,0,0,0-6.38-4.25A6.46,6.46,0,0,0,316.12,602.17Z" transform="translate(-191.67 -370.02)"/><path class="cls-1" d="M360.28,596.35a12.61,12.61,0,0,1,2.91,8.55,12.43,12.43,0,0,1-2.91,8.51,10,10,0,0,1-15.54-.79v13h-6V593.48h6v3.65a10,10,0,0,1,15.54-.78ZM357,604.9c0-3.89-2.59-6.66-6.1-6.66s-6.2,2.77-6.2,6.66,2.64,6.61,6.2,6.61S357,608.74,357,604.9Z" transform="translate(-191.67 -370.02)"/><path class="cls-1" d="M380.67,593.48v5h-5.09v17.85h-6.06V598.47h-4.25v-5h4.25v-6h6.06v6Z" transform="translate(-191.67 -370.02)"/><path class="cls-1" d="M331.5,394.07a8.16,8.16,0,0,1-2.45,6.14,8.88,8.88,0,0,1-6.38,2.36H306V370.49h15.26a9.07,9.07,0,0,1,6.38,2.26A8.06,8.06,0,0,1,325.26,386,8,8,0,0,1,331.5,394.07Zm-8.73-17A4,4,0,0,0,319.9,376h-7.49v7.85h7.49a3.86,3.86,0,0,0,2.87-1.15A4.14,4.14,0,0,0,322.77,377.1ZM321,397a4.05,4.05,0,0,0,0-8.1h-8.55V397Z" transform="translate(-191.67 -370.02)"/><path class="cls-1" d="M341.72,384.82c1.62-3.7,4.53-5.83,8.28-5.83v6c-5,0-8.28,2.5-8.28,6.57v11h-6V379.73h6Z" transform="translate(-191.67 -370.02)"/><path class="cls-1" d="M370.15,379.73h6.06v22.84h-6.06v-3.7a9.94,9.94,0,0,1-15.48.79,12.22,12.22,0,0,1-3-8.51,12.43,12.43,0,0,1,3-8.55,9.94,9.94,0,0,1,15.48.79Zm-6.1,18a5.68,5.68,0,0,0,4.39-1.89,6.64,6.64,0,0,0,1.71-4.72c0-3.88-2.54-6.65-6.1-6.65s-6.15,2.77-6.15,6.65a6.68,6.68,0,0,0,1.76,4.72A5.7,5.7,0,0,0,364.05,397.76Z" transform="translate(-191.67 -370.02)"/><path class="cls-1" d="M384.72,376.73a3.37,3.37,0,1,1,0-6.71,4,4,0,0,1,2.68.93A3.38,3.38,0,0,1,384.72,376.73Zm-3,3h6.06v22.84h-6.06Z" transform="translate(-191.67 -370.02)"/><path class="cls-1" d="M412.64,381.77a9.41,9.41,0,0,1,2.31,6.52v14.28h-6v-13.4c0-3.1-1.94-5.09-4.76-5.09s-4.81,2.08-4.81,5.09v13.4h-6.05V379.73h6.05v3.43a7.9,7.9,0,0,1,7.17-3.89A8,8,0,0,1,412.64,381.77Z" transform="translate(-191.67 -370.02)"/><path class="cls-1" d="M453.84,372.89a9.85,9.85,0,0,1,3.37,7.58H451c-.05-3.19-2.41-5.22-5.92-5.22-3.19,0-5.41,1.62-5.41,4.16,0,7,18.45,1.62,18.45,13.73a8.42,8.42,0,0,1-3.61,7.17c-2.4,1.8-5.55,2.68-9.43,2.68a13.79,13.79,0,0,1-9.25-3,9.74,9.74,0,0,1-3.6-7.77h6.42c.05,3.29,2.64,5.5,6.75,5.5,3.66,0,6.15-1.75,6.15-4.39,0-6.89-18.44-1.75-18.44-13.54a8.62,8.62,0,0,1,3.37-7.12,13.62,13.62,0,0,1,8.79-2.69A13,13,0,0,1,453.84,372.89Z" transform="translate(-191.67 -370.02)"/><path class="cls-1" d="M476,379.73v5h-5.09v17.84h-6.05V384.73h-4.26v-5h4.26v-6h6.05v6Z" transform="translate(-191.67 -370.02)"/><path class="cls-1" d="M490.27,379.27a12.25,12.25,0,0,1,8.83,3.33,11.44,11.44,0,0,1,3.46,8.55,11.26,11.26,0,0,1-3.46,8.51,13.37,13.37,0,0,1-17.66,0,11.13,11.13,0,0,1-3.52-8.51,11.31,11.31,0,0,1,3.52-8.55A12.25,12.25,0,0,1,490.27,379.27Zm0,5.23a5.67,5.67,0,0,0-4.39,1.84,6.8,6.8,0,0,0-1.71,4.81c0,3.84,2.54,6.61,6.1,6.61s6.15-2.77,6.15-6.61a6.84,6.84,0,0,0-1.71-4.81A5.8,5.8,0,0,0,490.22,384.5Z" transform="translate(-191.67 -370.02)"/><path class="cls-1" d="M512.78,384.82c1.62-3.7,4.53-5.83,8.28-5.83v6c-5,0-8.28,2.5-8.28,6.57v11h-6V379.73h6Z" transform="translate(-191.67 -370.02)"/><path class="cls-1" d="M558.46,387.5v15.07H552.4V388.38c0-2.64-1.57-4.3-4-4.3s-4,1.66-4,4.3v14.19H538.3V388.38c0-2.64-1.52-4.3-4-4.3s-4.07,1.66-4.07,4.3v14.19h-6V379.73h6v3.66a6.92,6.92,0,0,1,6.7-4.12,6.83,6.83,0,0,1,6.66,4.39,7.57,7.57,0,0,1,7.12-4.39C555.36,379.27,558.46,382.55,558.46,387.5Z" transform="translate(-191.67 -370.02)"/><path class="cls-1" d="M566.69,376.73a3.37,3.37,0,1,1,0-6.71,4,4,0,0,1,2.68.93A3.38,3.38,0,0,1,566.69,376.73Zm-3,3h6.06v22.84h-6.06Z" transform="translate(-191.67 -370.02)"/><path class="cls-1" d="M594.61,381.77a9.41,9.41,0,0,1,2.31,6.52v14.28h-6v-13.4c0-3.1-1.94-5.09-4.76-5.09s-4.81,2.08-4.81,5.09v13.4h-6.05V379.73h6.05v3.43a7.9,7.9,0,0,1,7.17-3.89A8,8,0,0,1,594.61,381.77Z" transform="translate(-191.67 -370.02)"/><path class="cls-1" d="M619.39,379.73h6.06v21.32a10.66,10.66,0,0,1-3.33,8,12.11,12.11,0,0,1-8.55,3.15,12.38,12.38,0,0,1-7.63-2.41,9.49,9.49,0,0,1-3.93-6.1h5.64c.6,2.17,3,3.7,5.69,3.7a5.84,5.84,0,0,0,6-6v-3.61a9.48,9.48,0,0,1-8,3.88,9.66,9.66,0,0,1-7.45-3.19,11.17,11.17,0,0,1-2.95-8,11.3,11.3,0,0,1,2.95-8,9.76,9.76,0,0,1,7.45-3.15,9.6,9.6,0,0,1,8,3.89Zm-6.1,17.34a5.65,5.65,0,0,0,4.39-1.85,6.63,6.63,0,0,0,1.71-4.71,6.77,6.77,0,0,0-1.71-4.77,6.13,6.13,0,0,0-8.78,0,6.8,6.8,0,0,0-1.76,4.77,6.67,6.67,0,0,0,1.76,4.71A5.65,5.65,0,0,0,613.29,397.07Z" transform="translate(-191.67 -370.02)"/><path class="cls-1" d="M766.47,682.45a16.24,16.24,0,0,1,11.88,4.48,16.68,16.68,0,0,1,0,23.07,16.28,16.28,0,0,1-11.88,4.53H755.24V682.45Zm-.09,26.4a9.7,9.7,0,0,0,7.26-2.92,11.51,11.51,0,0,0,0-15,9.85,9.85,0,0,0-7.26-2.86h-4.72v20.76Z" transform="translate(-191.67 -370.02)"/><path class="cls-1" d="M810.53,705H792.08a6.49,6.49,0,0,0,6.38,5.09,6.27,6.27,0,0,0,5.78-3.65h6.06a10.79,10.79,0,0,1-4.3,6.14,12.54,12.54,0,0,1-7.58,2.41,12.25,12.25,0,0,1-8.83-3.33,11.13,11.13,0,0,1-3.52-8.51,11.27,11.27,0,0,1,3.52-8.55,13.31,13.31,0,0,1,17.61,0,11.76,11.76,0,0,1,3.52,8.6A6.9,6.9,0,0,1,810.53,705Zm-18.21-4.58h12.52a6.68,6.68,0,0,0-6.38-4.25A6.45,6.45,0,0,0,792.32,700.38Z" transform="translate(-191.67 -370.02)"/><path class="cls-1" d="M823.84,691.23a10.91,10.91,0,0,1,6.8,2,6.31,6.31,0,0,1,2.64,5.23h-5.5c-.14-1.8-1.67-3-3.89-3-2,0-3.47,1-3.47,2.49,0,1.67,1.67,2.32,5.51,3.1a14.07,14.07,0,0,1,6.19,2.55,5.64,5.64,0,0,1,1.85,4.25,6.15,6.15,0,0,1-2.73,5.13,11.79,11.79,0,0,1-7.12,2,12,12,0,0,1-7.26-2.08,6.32,6.32,0,0,1-2.82-5.32h5.83c.14,1.85,1.8,3.1,4.21,3.1,2.22,0,3.79-1.11,3.79-2.64s-1.67-2.26-5.37-3a3.51,3.51,0,0,1-.69-.14c-4.85-1.15-7.3-3.33-7.3-6.61a6,6,0,0,1,2.58-5A11,11,0,0,1,823.84,691.23Z" transform="translate(-191.67 -370.02)"/><path class="cls-1" d="M841.55,688.69a3.37,3.37,0,1,1,0-6.71,4,4,0,0,1,2.68.93A3.38,3.38,0,0,1,841.55,688.69Zm-3,3h6.05v22.84h-6.05Z" transform="translate(-191.67 -370.02)"/><path class="cls-1" d="M867.3,691.69h6.06V713a10.67,10.67,0,0,1-3.33,8,12.11,12.11,0,0,1-8.55,3.15,12.4,12.4,0,0,1-7.63-2.41,9.49,9.49,0,0,1-3.93-6.1h5.64c.6,2.17,3,3.7,5.69,3.7a5.84,5.84,0,0,0,6-6v-3.61a9.48,9.48,0,0,1-8,3.88,9.63,9.63,0,0,1-7.44-3.19,11.14,11.14,0,0,1-3-8,11.31,11.31,0,0,1,3-8,9.76,9.76,0,0,1,7.44-3.14,9.6,9.6,0,0,1,8,3.88ZM861.2,709a5.65,5.65,0,0,0,4.39-1.85,6.64,6.64,0,0,0,1.71-4.72,6.76,6.76,0,0,0-1.71-4.76,6.13,6.13,0,0,0-8.78,0,6.79,6.79,0,0,0-1.76,4.76,6.68,6.68,0,0,0,1.76,4.72A5.65,5.65,0,0,0,861.2,709Z" transform="translate(-191.67 -370.02)"/><path class="cls-1" d="M898.19,693.73a9.46,9.46,0,0,1,2.31,6.52v14.28h-6V701.12c0-3.09-1.94-5.08-4.76-5.08s-4.81,2.08-4.81,5.08v13.41h-6.06V691.69h6.06v3.42a7.87,7.87,0,0,1,7.16-3.88A8,8,0,0,1,898.19,693.73Z" transform="translate(-191.67 -370.02)"/><path class="cls-1" d="M1038.45,370.81a16.32,16.32,0,0,1,11.89,4.48,16.71,16.71,0,0,1,0,23.07,16.33,16.33,0,0,1-11.89,4.54h-11.23V370.81Zm-.09,26.4a9.7,9.7,0,0,0,7.26-2.91,10.47,10.47,0,0,0,2.77-7.54,10.36,10.36,0,0,0-2.77-7.44,9.82,9.82,0,0,0-7.26-2.87h-4.72v20.76Z" transform="translate(-191.67 -370.02)"/><path class="cls-1" d="M1082.51,393.33h-18.44a6.48,6.48,0,0,0,6.38,5.08,6.28,6.28,0,0,0,5.78-3.65h6a10.85,10.85,0,0,1-4.3,6.15,12.53,12.53,0,0,1-7.58,2.4,12.25,12.25,0,0,1-8.83-3.33,11.11,11.11,0,0,1-3.51-8.5,11.3,11.3,0,0,1,3.51-8.56,13.31,13.31,0,0,1,17.61,0,11.74,11.74,0,0,1,3.52,8.6A6.94,6.94,0,0,1,1082.51,393.33Zm-18.21-4.58h12.53a6.71,6.71,0,0,0-6.38-4.26A6.46,6.46,0,0,0,1064.3,388.75Z" transform="translate(-191.67 -370.02)"/><path class="cls-1" d="M1102,380.06h6.43l-8.78,22.84h-7.17l-8.79-22.84h6.43l5.92,16.87Z" transform="translate(-191.67 -370.02)"/><path class="cls-1" d="M1134.06,393.33h-18.45a6.49,6.49,0,0,0,6.39,5.08,6.26,6.26,0,0,0,5.77-3.65h6.06a10.85,10.85,0,0,1-4.3,6.15,12.53,12.53,0,0,1-7.58,2.4,12.25,12.25,0,0,1-8.83-3.33,11.12,11.12,0,0,1-3.52-8.5,11.31,11.31,0,0,1,3.52-8.56,13.31,13.31,0,0,1,17.61,0,11.74,11.74,0,0,1,3.52,8.6A6.94,6.94,0,0,1,1134.06,393.33Zm-18.21-4.58h12.53a6.71,6.71,0,0,0-6.38-4.26A6.45,6.45,0,0,0,1115.85,388.75Z" transform="translate(-191.67 -370.02)"/><path class="cls-1" d="M1138.45,370.81h6V402.9h-6Z" transform="translate(-191.67 -370.02)"/><path class="cls-1" d="M1161,379.59a12.29,12.29,0,0,1,8.84,3.33,11.45,11.45,0,0,1,3.46,8.56,11.25,11.25,0,0,1-3.46,8.5,13.39,13.39,0,0,1-17.67,0,11.15,11.15,0,0,1-3.51-8.5,11.34,11.34,0,0,1,3.51-8.56A12.27,12.27,0,0,1,1161,379.59Zm0,5.23a5.65,5.65,0,0,0-4.39,1.85,6.78,6.78,0,0,0-1.71,4.81c0,3.83,2.54,6.61,6.1,6.61s6.15-2.78,6.15-6.61a6.83,6.83,0,0,0-1.71-4.81A5.77,5.77,0,0,0,1161,384.82Z" transform="translate(-191.67 -370.02)"/><path class="cls-1" d="M1199.06,382.92a12.61,12.61,0,0,1,2.92,8.56,12.38,12.38,0,0,1-2.92,8.5,10,10,0,0,1-15.53-.78v12.94h-6V380.06h6v3.65a10,10,0,0,1,15.53-.79Zm-3.23,8.56c0-3.89-2.59-6.66-6.11-6.66s-6.19,2.77-6.19,6.66,2.64,6.61,6.19,6.61S1195.83,395.31,1195.83,391.48Z" transform="translate(-191.67 -370.02)"/><path class="cls-1" d="M1229.44,393.33H1211a6.49,6.49,0,0,0,6.38,5.08,6.27,6.27,0,0,0,5.78-3.65h6.06a10.85,10.85,0,0,1-4.3,6.15,12.53,12.53,0,0,1-7.58,2.4,12.29,12.29,0,0,1-8.84-3.33,11.15,11.15,0,0,1-3.51-8.5,11.34,11.34,0,0,1,3.51-8.56,12.29,12.29,0,0,1,8.84-3.33,12.15,12.15,0,0,1,8.78,3.33,11.73,11.73,0,0,1,3.51,8.6A7,7,0,0,1,1229.44,393.33Zm-18.22-4.58h12.53a6.7,6.7,0,0,0-6.38-4.26A6.46,6.46,0,0,0,1211.22,388.75Z" transform="translate(-191.67 -370.02)"/><path class="cls-1" d="M1268,387.82V402.9h-6V388.7c0-2.63-1.58-4.3-4-4.3s-4,1.67-4,4.3v14.2h-6.06V388.7c0-2.63-1.52-4.3-4-4.3s-4.07,1.67-4.07,4.3v14.2h-6V380.06h6v3.65a6.92,6.92,0,0,1,6.7-4.12,6.81,6.81,0,0,1,6.66,4.4,7.57,7.57,0,0,1,7.12-4.4C1265,379.59,1268,382.88,1268,387.82Z" transform="translate(-191.67 -370.02)"/><path class="cls-1" d="M1296.43,393.33H1278a6.49,6.49,0,0,0,6.38,5.08,6.27,6.27,0,0,0,5.78-3.65h6.06a10.85,10.85,0,0,1-4.3,6.15,12.53,12.53,0,0,1-7.58,2.4,12.25,12.25,0,0,1-8.83-3.33,11.12,11.12,0,0,1-3.52-8.5,11.31,11.31,0,0,1,3.52-8.56,13.31,13.31,0,0,1,17.61,0,11.73,11.73,0,0,1,3.51,8.6A7,7,0,0,1,1296.43,393.33Zm-18.22-4.58h12.53a6.69,6.69,0,0,0-6.38-4.26A6.46,6.46,0,0,0,1278.21,388.75Z" transform="translate(-191.67 -370.02)"/><path class="cls-1" d="M1320.19,382.09a9.41,9.41,0,0,1,2.31,6.52V402.9h-6V389.49c0-3.1-1.94-5.09-4.76-5.09s-4.81,2.08-4.81,5.09V402.9h-6.05V380.06h6.05v3.42a7.9,7.9,0,0,1,7.17-3.89A8,8,0,0,1,1320.19,382.09Z" transform="translate(-191.67 -370.02)"/><path class="cls-1" d="M1341.32,380.06v5h-5.09V402.9h-6V385.05h-4.26v-5h4.26v-6h6v6Z" transform="translate(-191.67 -370.02)"/><path class="cls-1" d="M1367.91,684.42v32.09h-6.43V684.42Z" transform="translate(-191.67 -370.02)"/><path class="cls-1" d="M1408,701.43v15.08h-6.06v-14.2c0-2.63-1.57-4.3-4-4.3s-4,1.67-4,4.3v14.2h-6.06v-14.2c0-2.63-1.53-4.3-4-4.3s-4.07,1.67-4.07,4.3v14.2h-6V693.67h6v3.65a6.94,6.94,0,0,1,6.71-4.12,6.82,6.82,0,0,1,6.66,4.4,7.55,7.55,0,0,1,7.12-4.4C1404.85,693.2,1408,696.49,1408,701.43Z" transform="translate(-191.67 -370.02)"/><path class="cls-1" d="M1434.67,696.53a12.65,12.65,0,0,1,2.91,8.56,12.42,12.42,0,0,1-2.91,8.5,10,10,0,0,1-15.54-.78v12.94h-6V693.67h6v3.65a10,10,0,0,1,15.54-.79Zm-3.24,8.56c0-3.89-2.59-6.66-6.1-6.66s-6.2,2.77-6.2,6.66,2.64,6.61,6.2,6.61S1431.43,708.92,1431.43,705.09Z" transform="translate(-191.67 -370.02)"/><path class="cls-1" d="M1441.83,684.42h6v32.09h-6Z" transform="translate(-191.67 -370.02)"/><path class="cls-1" d="M1476.51,706.94h-18.45a6.49,6.49,0,0,0,6.38,5.08,6.27,6.27,0,0,0,5.78-3.65h6.06a10.81,10.81,0,0,1-4.3,6.15,12.53,12.53,0,0,1-7.58,2.4,12.29,12.29,0,0,1-8.84-3.33,11.15,11.15,0,0,1-3.51-8.5,11.34,11.34,0,0,1,3.51-8.56,12.29,12.29,0,0,1,8.84-3.33,12.13,12.13,0,0,1,8.78,3.33,11.75,11.75,0,0,1,3.51,8.6A7,7,0,0,1,1476.51,706.94Zm-18.22-4.58h12.53a6.7,6.7,0,0,0-6.38-4.26A6.46,6.46,0,0,0,1458.29,702.36Z" transform="translate(-191.67 -370.02)"/><path class="cls-1" d="M1515.11,701.43v15.08h-6v-14.2c0-2.63-1.58-4.3-4-4.3s-4,1.67-4,4.3v14.2h-6v-14.2c0-2.63-1.53-4.3-4-4.3s-4.07,1.67-4.07,4.3v14.2h-6V693.67h6v3.65a6.92,6.92,0,0,1,6.7-4.12,6.81,6.81,0,0,1,6.66,4.4,7.57,7.57,0,0,1,7.12-4.4C1512,693.2,1515.11,696.49,1515.11,701.43Z" transform="translate(-191.67 -370.02)"/><path class="cls-1" d="M1543.5,706.94h-18.45a6.49,6.49,0,0,0,6.38,5.08,6.27,6.27,0,0,0,5.78-3.65h6.06a10.81,10.81,0,0,1-4.3,6.15,12.53,12.53,0,0,1-7.58,2.4,12.29,12.29,0,0,1-8.84-3.33,11.15,11.15,0,0,1-3.51-8.5,11.34,11.34,0,0,1,3.51-8.56,12.29,12.29,0,0,1,8.84-3.33,12.13,12.13,0,0,1,8.78,3.33,11.75,11.75,0,0,1,3.51,8.6A7,7,0,0,1,1543.5,706.94Zm-18.22-4.58h12.53a6.7,6.7,0,0,0-6.38-4.26A6.46,6.46,0,0,0,1525.28,702.36Z" transform="translate(-191.67 -370.02)"/><path class="cls-1" d="M1567.26,695.7a9.41,9.41,0,0,1,2.31,6.52v14.29h-6V703.1c0-3.1-1.94-5.09-4.76-5.09s-4.81,2.08-4.81,5.09v13.41h-6V693.67h6v3.42a7.9,7.9,0,0,1,7.17-3.89A8,8,0,0,1,1567.26,695.7Z" transform="translate(-191.67 -370.02)"/><path class="cls-1" d="M1588.39,693.67v5h-5.09v17.85h-6V698.66H1573v-5h4.26v-6h6v6Z" transform="translate(-191.67 -370.02)"/><path class="cls-1" d="M1608.78,693.67h6.06v22.84h-6.06v-3.7a10,10,0,0,1-15.49.78,12.22,12.22,0,0,1-3-8.5,12.44,12.44,0,0,1,3-8.56,9.95,9.95,0,0,1,15.49.79Zm-6.1,18a5.7,5.7,0,0,0,4.39-1.9,6.68,6.68,0,0,0,1.71-4.71c0-3.89-2.54-6.66-6.1-6.66s-6.15,2.77-6.15,6.66a6.71,6.71,0,0,0,1.75,4.71A5.71,5.71,0,0,0,1602.68,711.7Z" transform="translate(-191.67 -370.02)"/><path class="cls-1" d="M1633.84,693.67v5h-5.09v17.85h-6.06V698.66h-4.25v-5h4.25v-6h6.06v6Z" transform="translate(-191.67 -370.02)"/><path class="cls-1" d="M1640.4,690.66a3.36,3.36,0,1,1,0-6.7,4,4,0,0,1,2.68.92A3.38,3.38,0,0,1,1640.4,690.66Zm-3,3h6v22.84h-6Z" transform="translate(-191.67 -370.02)"/><path class="cls-1" d="M1660.05,693.2a12.25,12.25,0,0,1,8.83,3.33,11.46,11.46,0,0,1,3.47,8.56,11.26,11.26,0,0,1-3.47,8.5,13.37,13.37,0,0,1-17.66,0,11.11,11.11,0,0,1-3.51-8.5,11.3,11.3,0,0,1,3.51-8.56A12.25,12.25,0,0,1,1660.05,693.2Zm0,5.23a5.66,5.66,0,0,0-4.39,1.85,6.83,6.83,0,0,0-1.71,4.81c0,3.83,2.54,6.61,6.1,6.61s6.15-2.78,6.15-6.61a6.78,6.78,0,0,0-1.71-4.81A5.74,5.74,0,0,0,1660,698.43Z" transform="translate(-191.67 -370.02)"/><path class="cls-1" d="M1695.93,695.7a9.46,9.46,0,0,1,2.31,6.52v14.29h-6V703.1c0-3.1-1.94-5.09-4.76-5.09s-4.81,2.08-4.81,5.09v13.41h-6.06V693.67h6.06v3.42a7.88,7.88,0,0,1,7.16-3.89A8.06,8.06,0,0,1,1695.93,695.7Z" transform="translate(-191.67 -370.02)"/><path class="cls-1" d="M1853.49,370.89v5.64h-9.39V403h-6.42V376.53h-9.39v-5.64Z" transform="translate(-191.67 -370.02)"/><path class="cls-1" d="M1875.68,393.41h-18.45a6.49,6.49,0,0,0,6.39,5.08,6.26,6.26,0,0,0,5.77-3.65h6.06a10.81,10.81,0,0,1-4.3,6.15,12.53,12.53,0,0,1-7.58,2.4,12.25,12.25,0,0,1-8.83-3.33,11.12,11.12,0,0,1-3.52-8.5,11.31,11.31,0,0,1,3.52-8.56,13.31,13.31,0,0,1,17.61,0,11.76,11.76,0,0,1,3.52,8.6A6.94,6.94,0,0,1,1875.68,393.41Zm-18.21-4.58H1870a6.71,6.71,0,0,0-6.38-4.26A6.46,6.46,0,0,0,1857.47,388.83Z" transform="translate(-191.67 -370.02)"/><path class="cls-1" d="M1889,379.67a10.88,10.88,0,0,1,6.79,2,6.29,6.29,0,0,1,2.64,5.22h-5.5c-.14-1.8-1.67-3.05-3.89-3.05-2,0-3.46,1-3.46,2.5,0,1.66,1.66,2.31,5.5,3.1a14.17,14.17,0,0,1,6.19,2.54,5.61,5.61,0,0,1,1.85,4.25,6.15,6.15,0,0,1-2.73,5.13,11.77,11.77,0,0,1-7.12,2,11.94,11.94,0,0,1-7.26-2.08,6.3,6.3,0,0,1-2.82-5.32H1885c.14,1.85,1.8,3.1,4.21,3.1,2.22,0,3.79-1.11,3.79-2.63s-1.67-2.27-5.36-3a6,6,0,0,1-.7-.14c-4.85-1.16-7.3-3.33-7.3-6.61a6,6,0,0,1,2.59-5A10.88,10.88,0,0,1,1889,379.67Z" transform="translate(-191.67 -370.02)"/><path class="cls-1" d="M1917.2,380.14v5h-5.09V403h-6V385.13h-4.26v-5h4.26v-6h6v6Z" transform="translate(-191.67 -370.02)"/><path class="cls-1" d="M1923.76,377.13a3.36,3.36,0,1,1,0-6.7,4,4,0,0,1,2.68.92A3.38,3.38,0,0,1,1923.76,377.13Zm-3,3h6V403h-6Z" transform="translate(-191.67 -370.02)"/><path class="cls-1" d="M1951.69,382.17a9.46,9.46,0,0,1,2.31,6.52V403h-6V389.57c0-3.1-1.94-5.09-4.76-5.09s-4.81,2.08-4.81,5.09V403h-6.06V380.14h6.06v3.42a7.89,7.89,0,0,1,7.17-3.89A8,8,0,0,1,1951.69,382.17Z" transform="translate(-191.67 -370.02)"/><path class="cls-1" d="M1976.47,380.14h6v21.31a10.63,10.63,0,0,1-3.32,8,12.11,12.11,0,0,1-8.56,3.15,12.42,12.42,0,0,1-7.63-2.41,9.47,9.47,0,0,1-3.93-6.1h5.64c.61,2.18,3,3.7,5.69,3.7a5.85,5.85,0,0,0,6.06-6v-3.61a9.51,9.51,0,0,1-8,3.89,9.67,9.67,0,0,1-7.44-3.19,11.14,11.14,0,0,1-3-8.05,11.28,11.28,0,0,1,3-8,9.78,9.78,0,0,1,7.44-3.15,9.62,9.62,0,0,1,8,3.89Zm-6.1,17.33a5.66,5.66,0,0,0,4.39-1.85,6.66,6.66,0,0,0,1.71-4.71,6.79,6.79,0,0,0-1.71-4.76,6.15,6.15,0,0,0-8.79,0,6.81,6.81,0,0,0-1.75,4.76,6.69,6.69,0,0,0,1.75,4.71A5.67,5.67,0,0,0,1970.37,397.47Z" transform="translate(-191.67 -370.02)"/><path class="cls-1" d="M2020,617.12h-6.71a36.77,36.77,0,0,1-.41-6.1c-.14-3.37-1.76-5.59-4.39-5.59h-8.23v11.69h-6.43V585h15c6.52,0,10.68,3.56,10.68,9.24a8.45,8.45,0,0,1-5.32,8.23c3.29,1.07,5,3.66,5.18,7.68C2019.53,613.89,2019.71,616.2,2020,617.12Zm-11.88-16.87a4.79,4.79,0,1,0,0-9.57h-7.86v9.57Z" transform="translate(-191.67 -370.02)"/><path class="cls-1" d="M2047.64,607.55h-18.45a6.49,6.49,0,0,0,6.38,5.09,6.27,6.27,0,0,0,5.78-3.65h6.06a10.79,10.79,0,0,1-4.3,6.14,12.54,12.54,0,0,1-7.58,2.41,12.29,12.29,0,0,1-8.84-3.33,11.16,11.16,0,0,1-3.51-8.51,11.33,11.33,0,0,1,3.51-8.55,12.29,12.29,0,0,1,8.84-3.33,12.13,12.13,0,0,1,8.78,3.33,11.73,11.73,0,0,1,3.51,8.6A6.94,6.94,0,0,1,2047.64,607.55ZM2029.42,603H2042a6.68,6.68,0,0,0-6.38-4.26A6.46,6.46,0,0,0,2029.42,603Z" transform="translate(-191.67 -370.02)"/><path class="cls-1" d="M2052,585h6v32.08h-6Z" transform="translate(-191.67 -370.02)"/><path class="cls-1" d="M2086.7,607.55h-18.44a6.48,6.48,0,0,0,6.38,5.09,6.28,6.28,0,0,0,5.78-3.65h6a10.75,10.75,0,0,1-4.3,6.14,12.54,12.54,0,0,1-7.58,2.41,12.25,12.25,0,0,1-8.83-3.33,11.12,11.12,0,0,1-3.51-8.51,11.3,11.3,0,0,1,3.51-8.55,13.32,13.32,0,0,1,17.62,0,11.77,11.77,0,0,1,3.51,8.6A6.9,6.9,0,0,1,2086.7,607.55ZM2068.49,603H2081a6.69,6.69,0,0,0-6.38-4.26A6.46,6.46,0,0,0,2068.49,603Z" transform="translate(-191.67 -370.02)"/><path class="cls-1" d="M2108.29,594.28h6.06v22.84h-6.06v-3.7a9.94,9.94,0,0,1-15.48.79,12.22,12.22,0,0,1-3-8.51,12.43,12.43,0,0,1,3-8.55,9.94,9.94,0,0,1,15.48.79Zm-6.1,18a5.68,5.68,0,0,0,4.39-1.89,6.64,6.64,0,0,0,1.71-4.72c0-3.88-2.54-6.65-6.1-6.65s-6.15,2.77-6.15,6.65a6.68,6.68,0,0,0,1.76,4.72A5.7,5.7,0,0,0,2102.19,612.31Z" transform="translate(-191.67 -370.02)"/><path class="cls-1" d="M2128.73,593.82a10.82,10.82,0,0,1,6.79,2,6.28,6.28,0,0,1,2.64,5.22h-5.5c-.14-1.8-1.67-3.05-3.89-3.05-2,0-3.46,1-3.46,2.5,0,1.66,1.66,2.31,5.5,3.09a14,14,0,0,1,6.19,2.55,5.61,5.61,0,0,1,1.85,4.25,6.16,6.16,0,0,1-2.72,5.13,13.72,13.72,0,0,1-14.38-.09,6.29,6.29,0,0,1-2.82-5.32h5.82c.14,1.85,1.81,3.1,4.21,3.1,2.22,0,3.79-1.11,3.79-2.64s-1.66-2.26-5.36-3.05a3.48,3.48,0,0,1-.7-.14c-4.85-1.15-7.3-3.33-7.3-6.61a6.05,6.05,0,0,1,2.59-5A10.94,10.94,0,0,1,2128.73,593.82Z" transform="translate(-191.67 -370.02)"/><path class="cls-1" d="M2166.59,607.55h-18.44a6.48,6.48,0,0,0,6.38,5.09,6.28,6.28,0,0,0,5.78-3.65h6.05a10.75,10.75,0,0,1-4.3,6.14,12.54,12.54,0,0,1-7.58,2.41,12.25,12.25,0,0,1-8.83-3.33,11.12,11.12,0,0,1-3.51-8.51,11.3,11.3,0,0,1,3.51-8.55,13.31,13.31,0,0,1,17.61,0,11.74,11.74,0,0,1,3.52,8.6A6.9,6.9,0,0,1,2166.59,607.55ZM2148.38,603h12.53a6.69,6.69,0,0,0-6.38-4.26A6.46,6.46,0,0,0,2148.38,603Z" transform="translate(-191.67 -370.02)"/><path class="cls-2" d="M1899.76,431.39A232.45,232.45,0,0,0,1703.4,539.28l-.32-.11a195.36,195.36,0,0,1-324.14,0l-.31.11a232.61,232.61,0,0,0-392.7,0l-.32-.11a195.36,195.36,0,0,1-324.14,0l-.31.11a232.65,232.65,0,0,0-395.62,4.66,253.14,253.14,0,0,1,37.2,11,195.37,195.37,0,0,1,324.15,0l.3-.11a232.62,232.62,0,0,0,392.71,0l.31.11a195.37,195.37,0,0,1,324.15,0l.31-.11a232.61,232.61,0,0,0,392.7,0l.32.11a195.36,195.36,0,0,1,324.14,0,252.65,252.65,0,0,1,37.19-11A232.5,232.5,0,0,0,1899.76,431.39Z" transform="translate(-191.67 -370.02)"/><path class="cls-3" d="M1211.28,450.81a28.19,28.19,0,1,1-28.19-28.18A28.19,28.19,0,0,1,1211.28,450.81Zm318.28,166.07a28.19,28.19,0,1,0,28.19,28.19A28.19,28.19,0,0,0,1529.56,616.88Zm376.91-194.25a28.19,28.19,0,1,0,28.19,28.18A28.19,28.19,0,0,0,1906.47,422.63Zm173,94.94a28.19,28.19,0,1,0,28.19,28.19A28.19,28.19,0,0,0,2079.49,517.57Zm-1793.74-.71A28.19,28.19,0,1,0,313.94,545,28.19,28.19,0,0,0,285.75,516.86Zm179.76-94.23a28.19,28.19,0,1,0,28.19,28.18A28.19,28.19,0,0,0,465.51,422.63ZM827.57,615.39a28.19,28.19,0,1,0,28.18,28.18A28.19,28.19,0,0,0,827.57,615.39Z" transform="translate(-191.67 -370.02)"/></svg>